<svg width="50" height="50" viewBox="0 0 50 50" fill="none" xmlns="http://www.w3.org/2000/svg">
<path d="M25 16.3737L18.75 19.9555V27.119L25 30.7008L31.25 27.119V19.9555L25 16.3737ZM28.1604 20.549L24.9729 22.3747L21.8125 20.5634L25 18.7377L28.1604 20.549ZM20.8125 22.3542L23.9042 24.1267V27.7085L20.8125 25.938V22.3542ZM25.9667 27.7842V24.1676L29.1875 22.3215V25.938L25.9667 27.7842ZM6.25 0L0 3.58176V10.7453L6.25 14.327L12.5 10.7453V3.58176L6.25 0ZM9.41042 4.1753L6.22292 6.00098L3.0625 4.18963L6.25 2.36396L9.41042 4.1753ZM2.0625 5.97846L5.15417 7.75092V11.3327L2.0625 9.56636V5.97846ZM7.21667 11.4084V7.7939L10.4375 5.94776V9.56431L7.21667 11.4084ZM6.25 34.7942L0 38.376V45.5395L6.25 49.1212L12.5 45.5395V38.376L6.25 34.7942ZM9.41042 38.9695L6.22292 40.7952L3.0625 38.9838L6.25 37.1582L9.41042 38.9695ZM2.0625 40.7747L5.15417 42.5472V46.1289L2.0625 44.3605V40.7747ZM7.21667 46.2046V42.5881L10.4375 40.742V44.3585L7.21667 46.2046ZM43.75 0L37.5 3.58176V10.7453L43.75 14.327L50 10.7453V3.58176L43.75 0ZM46.9104 4.1753L43.7229 6.00098L40.5625 4.18963L43.75 2.36396L46.9104 4.1753ZM39.5625 5.98051L42.6542 7.75297V11.3347L39.5625 9.56431V5.98051ZM44.7167 11.4104V7.7939L47.9375 5.94776V9.56431L44.7167 11.4104ZM43.75 34.7942L37.5 38.376V45.5395L43.75 49.1212L50 45.5395V38.376L43.75 34.7942ZM46.9104 38.9695L43.7229 40.7952L40.5625 38.9838L43.75 37.1582L46.9104 38.9695ZM39.5625 40.7747L42.6542 42.5472V46.1289L39.5625 44.3585V40.7747ZM44.7167 46.2046V42.5881L47.9375 40.742V44.3585L44.7167 46.2046ZM18.75 6.14015H31.25V8.18687H18.75V6.14015ZM18.75 40.9343H31.25V42.9811H18.75V40.9343ZM7.29167 18.4205V30.7008H5.20833V18.4205H7.29167ZM15.1937 18.0684L10.775 13.7273L12.2479 12.2803L16.6667 16.6193L15.1937 18.0684ZM33.3333 16.9734L37.7521 12.6323L39.225 14.0794L34.8063 18.4205L33.3333 16.9734ZM16.9333 30.4531L12.5146 34.7942L11.0417 33.3472L15.4604 29.0061L16.9333 30.4531ZM35.1646 28.9181L39.5833 33.2592L38.1104 34.7062L33.6917 30.3651L35.1646 28.9181ZM44.7917 18.4205V30.7008H42.7083V18.4205H44.7917Z" fill="white"/>
</svg>
