<svg width="50" height="50" viewBox="0 0 50 50" fill="none" xmlns="http://www.w3.org/2000/svg">
<path d="M11.6147 4.32085C11.8799 4.44839 12.1037 4.64824 12.2604 4.89739C12.417 5.14655 12.5001 5.43488 12.5001 5.72919C12.5001 7.45835 13.1501 8.45419 13.9647 9.66669L14.0251 9.75419C14.7168 10.7834 15.6251 12.1313 15.6251 14.0625C15.6251 16.0334 14.6313 17.7709 13.1168 18.8021C13.5147 19.1354 13.8668 19.5459 14.1709 20.0375C15.1626 21.6417 15.6251 24.0938 15.6251 27.6146C15.6251 31.1813 15.1459 35.4646 14.3647 38.8854C13.9772 40.5854 13.4959 42.1542 12.923 43.3313C12.6525 43.9169 12.2942 44.4579 11.8605 44.9354C11.4313 45.375 10.7709 45.8438 9.89592 45.8438C9.02092 45.8438 8.3605 45.375 7.93342 44.9354C7.49844 44.4589 7.14001 43.9177 6.87092 43.3313C6.29592 42.1521 5.81467 40.5854 5.42717 38.8834C4.61456 35.1807 4.19211 31.4032 4.16675 27.6125C4.16675 24.0917 4.62925 21.6417 5.62092 20.0375C5.90383 19.5719 6.25976 19.1548 6.67508 18.8021C5.9017 18.277 5.2687 17.5705 4.83144 16.7443C4.39418 15.9181 4.16597 14.9973 4.16675 14.0625C4.16675 13.2959 4.16675 11.9771 4.96467 10.275C5.74592 8.60835 7.23133 6.69377 9.9605 4.50835C10.1905 4.32436 10.4679 4.20913 10.7605 4.17596C11.0532 4.14278 11.3493 4.19301 11.6147 4.32085ZM7.29175 14.0604C7.29175 14.7511 7.56612 15.4156 8.05449 15.9039C8.54287 16.3923 9.20525 16.6667 9.89592 16.6667C10.5866 16.6667 11.249 16.3923 11.7373 15.9039C12.2257 15.4156 12.5001 14.7532 12.5001 14.0625C12.5001 13.1479 12.1147 12.5146 11.3709 11.4084L11.3459 11.3709C10.8688 10.6625 10.3043 9.82294 9.90425 8.74585C8.773 9.89585 8.148 10.85 7.79592 11.6C7.29175 12.675 7.29175 13.4417 7.29175 14.0604ZM8.27925 21.6792C7.76258 22.5167 7.29175 24.2334 7.29175 27.6146C7.29175 30.95 7.74592 35 8.473 38.1896C8.83967 39.7938 9.25633 41.0959 9.67925 41.9625C9.75633 42.1229 9.82925 42.2563 9.89592 42.3688C9.96258 42.2563 10.0355 42.1229 10.1126 41.9625C10.5355 41.0959 10.9522 39.7917 11.3188 38.1896C12.048 35.0021 12.5001 30.9521 12.5001 27.6146C12.5001 24.2334 12.0293 22.5167 11.5126 21.6792C11.3568 21.3972 11.1212 21.1675 10.8355 21.0188C10.5396 20.8899 10.2183 20.8301 9.89592 20.8438C9.47925 20.8438 9.18133 20.9083 8.95633 21.0188C8.67059 21.1675 8.43507 21.3972 8.27925 21.6792ZM20.8334 31.0792C19.7297 30.8941 18.6561 30.5605 17.6418 30.0875C17.7027 28.9059 17.7201 27.7225 17.6938 26.5396C18.6334 27.1709 19.6938 27.6354 20.8334 27.8938V21.875C20.8334 21.0462 21.1627 20.2514 21.7487 19.6653C22.3348 19.0793 23.1296 18.75 23.9584 18.75H32.2918C32.2917 17.0015 31.8026 15.2878 30.8797 13.8026C29.9568 12.3174 28.637 11.1199 27.0694 10.3454C25.5017 9.57088 23.7487 9.25022 22.0083 9.41965C20.268 9.58908 18.6098 10.2418 17.2209 11.3042C16.8043 10.1521 16.2105 9.27085 15.798 8.65835L15.7147 8.53335C17.5865 7.21387 19.7848 6.43395 22.0696 6.27874C24.3545 6.12354 26.638 6.59901 28.6711 7.65325C30.7041 8.70749 32.4084 10.3 33.598 12.2569C34.7876 14.2138 35.4168 16.4599 35.4168 18.75H42.7084C43.5372 18.75 44.3321 19.0793 44.9181 19.6653C45.5042 20.2514 45.8334 21.0462 45.8334 21.875V40.625C45.8334 41.4538 45.5042 42.2487 44.9181 42.8347C44.3321 43.4208 43.5372 43.75 42.7084 43.75H23.9584C23.1296 43.75 22.3348 43.4208 21.7487 42.8347C21.1627 42.2487 20.8334 41.4538 20.8334 40.625V31.0771V31.0792ZM23.9584 31.2104V40.6271H42.7084V21.8771H35.0209C34.3718 24.3876 32.9586 26.6342 30.9767 28.3063C28.9949 29.9784 26.5423 30.9933 23.9584 31.2104ZM31.7584 21.8771H23.9584V28.0709C25.7088 27.8746 27.3687 27.1896 28.748 26.0943C30.1274 24.999 31.1707 23.5375 31.7584 21.8771Z" fill="white"/>
</svg>
