<svg width="50" height="50" viewBox="0 0 50 50" fill="none" xmlns="http://www.w3.org/2000/svg">
<g clip-path="url(#clip0_104_350)">
<path d="M50 0V1.5625C50 4.52474 49.7396 7.29167 49.2188 9.86328C48.6979 12.4349 47.8923 14.8682 46.8018 17.1631C45.7113 19.458 44.3604 21.639 42.749 23.7061C41.1377 25.7731 39.2334 27.7995 37.0361 29.7852L32.373 43.75H25V38.208C22.7539 39.5264 20.4834 40.7959 18.1885 42.0166L7.9834 31.8115C9.2041 29.5166 10.4736 27.2461 11.792 25H6.25V17.627L20.2148 12.9883C22.1842 10.791 24.2025 8.87858 26.2695 7.25098C28.3366 5.62337 30.5257 4.27246 32.8369 3.19824C35.1481 2.12402 37.5814 1.3265 40.1367 0.805664C42.6921 0.284831 45.459 0.016276 48.4375 0H50ZM13.623 21.875C14.0951 21.1263 14.5671 20.3857 15.0391 19.6533C15.5111 18.9209 16.0156 18.1966 16.5527 17.4805L9.375 19.873V21.875H13.623ZM18.7744 38.1348C19.6045 37.6628 20.4346 37.1989 21.2646 36.7432C22.0947 36.2874 22.9248 35.8154 23.7549 35.3271L14.6729 26.2451C14.2008 27.0752 13.737 27.9053 13.2812 28.7354C12.8255 29.5654 12.3535 30.4036 11.8652 31.25L18.7744 38.1348ZM32.5195 33.4473C31.8034 33.9681 31.0791 34.4645 30.3467 34.9365C29.6143 35.4085 28.8737 35.8887 28.125 36.377V40.625H30.127L32.5195 33.4473ZM36.9873 25.4639C38.5986 23.8525 39.9984 22.2168 41.1865 20.5566C42.3747 18.8965 43.3838 17.1549 44.2139 15.332C45.0439 13.5091 45.6624 11.5967 46.0693 9.59473C46.4762 7.59277 46.7367 5.44434 46.8506 3.14941C44.5719 3.23079 42.4316 3.48307 40.4297 3.90625C38.4277 4.32943 36.5153 4.95605 34.6924 5.78613C32.8695 6.61621 31.1198 7.61719 29.4434 8.78906C27.7669 9.96094 26.1149 11.3607 24.4873 12.9883C22.876 14.5671 21.403 16.2272 20.0684 17.9688C18.7337 19.7103 17.4805 21.5495 16.3086 23.4863L26.5137 33.6914C28.4342 32.5195 30.2653 31.2663 32.0068 29.9316C33.7484 28.597 35.4085 27.1077 36.9873 25.4639ZM31.25 25C30.3874 25 29.5817 24.8372 28.833 24.5117C28.0843 24.1862 27.417 23.7386 26.8311 23.1689C26.2451 22.5993 25.7975 21.9401 25.4883 21.1914C25.179 20.4427 25.0163 19.6289 25 18.75C25 17.8874 25.1628 17.0817 25.4883 16.333C25.8138 15.5843 26.2614 14.917 26.8311 14.3311C27.4007 13.7451 28.0599 13.2975 28.8086 12.9883C29.5573 12.679 30.3711 12.5163 31.25 12.5C32.1126 12.5 32.9183 12.6628 33.667 12.9883C34.4157 13.3138 35.083 13.7614 35.6689 14.3311C36.2549 14.9007 36.7025 15.5599 37.0117 16.3086C37.321 17.0573 37.4837 17.8711 37.5 18.75C37.5 19.6126 37.3372 20.4183 37.0117 21.167C36.6862 21.9157 36.2386 22.583 35.6689 23.1689C35.0993 23.7549 34.4401 24.2025 33.6914 24.5117C32.9427 24.821 32.1289 24.9837 31.25 25ZM31.25 15.625C30.8105 15.625 30.4036 15.7064 30.0293 15.8691C29.6549 16.0319 29.3294 16.2516 29.0527 16.5283C28.776 16.805 28.5482 17.1387 28.3691 17.5293C28.1901 17.9199 28.1087 18.3268 28.125 18.75C28.125 19.1895 28.2064 19.5964 28.3691 19.9707C28.5319 20.3451 28.7516 20.6706 29.0283 20.9473C29.305 21.224 29.6387 21.4518 30.0293 21.6309C30.4199 21.8099 30.8268 21.8913 31.25 21.875C31.6895 21.875 32.0964 21.7936 32.4707 21.6309C32.8451 21.4681 33.1706 21.2484 33.4473 20.9717C33.724 20.695 33.9518 20.3613 34.1309 19.9707C34.3099 19.5801 34.3913 19.1732 34.375 18.75C34.375 18.3105 34.2936 17.9036 34.1309 17.5293C33.9681 17.1549 33.7484 16.8294 33.4717 16.5527C33.195 16.276 32.8613 16.0482 32.4707 15.8691C32.0801 15.6901 31.6732 15.6087 31.25 15.625ZM6.25 37.5C7.11263 37.5 7.91829 37.6628 8.66699 37.9883C9.41569 38.3138 10.083 38.7614 10.6689 39.3311C11.2549 39.9007 11.7025 40.5599 12.0117 41.3086C12.321 42.0573 12.4837 42.8711 12.5 43.75C12.5 44.6126 12.3372 45.4183 12.0117 46.167C11.6862 46.9157 11.2386 47.583 10.6689 48.1689C10.0993 48.7549 9.4401 49.2025 8.69141 49.5117C7.94271 49.821 7.12891 49.9837 6.25 50H0V43.75C0 42.8874 0.16276 42.0817 0.488281 41.333C0.813802 40.5843 1.26139 39.917 1.83105 39.3311C2.40072 38.7451 3.0599 38.2975 3.80859 37.9883C4.55729 37.679 5.37109 37.5163 6.25 37.5ZM6.25 46.875C6.68945 46.875 7.09635 46.7936 7.4707 46.6309C7.84505 46.4681 8.17057 46.2484 8.44727 45.9717C8.72396 45.695 8.95182 45.3613 9.13086 44.9707C9.3099 44.5801 9.39128 44.1732 9.375 43.75C9.375 43.3105 9.29362 42.9036 9.13086 42.5293C8.9681 42.1549 8.74837 41.8294 8.47168 41.5527C8.19499 41.276 7.86133 41.0482 7.4707 40.8691C7.08008 40.6901 6.67318 40.6087 6.25 40.625C5.81055 40.625 5.40365 40.7064 5.0293 40.8691C4.65495 41.0319 4.32943 41.2516 4.05273 41.5283C3.77604 41.805 3.54818 42.1387 3.36914 42.5293C3.1901 42.9199 3.10872 43.3268 3.125 43.75V46.875H6.25Z" fill="white"/>
</g>
<defs>
<clipPath id="clip0_104_350">
<rect width="50" height="50" fill="white"/>
</clipPath>
</defs>
</svg>
