<svg width="50" height="50" viewBox="0 0 50 50" fill="none" xmlns="http://www.w3.org/2000/svg">
<g clip-path="url(#clip0_104_314)">
<path d="M47.6959 1.11556L48.9858 2.62172L34.9087 18.2787L34.234 19.0291C34.3254 19.1808 34.4093 19.3364 34.4845 19.496M47.6959 1.11556L33.5799 19.9223M47.6959 1.11556L29.2278 13.1621L28.9776 13.3253C29.0382 12.1059 29.5068 10.7937 30.0722 9.5564L30.3079 9.04038M47.6959 1.11556L28.7224 10.175C28.8408 10.1606 28.9578 10.1501 29.0729 10.1438L29.1448 10.1407C29.1559 10.1409 29.1689 10.1409 29.1834 10.1406L29.1629 9.15428L30.0266 9.59354L30.0267 9.59334L30.0505 9.54651L30.3079 9.04038M34.4845 19.496L33.5799 19.9223M34.4845 19.496C34.4845 19.496 34.4845 19.496 34.4845 19.496L33.5799 19.9223M34.4845 19.496C34.8287 20.2265 35.182 21.0138 35.5521 21.8386C36.2999 23.5053 37.1165 25.3253 38.0666 27.1399C39.4797 29.8389 41.1104 32.3628 43.0546 34.0739L43.3092 34.298L43.375 34.6306C43.5851 35.6933 43.3461 36.5775 42.93 37.3329L42.93 37.333C42.4919 38.128 41.8522 38.7607 41.4417 39.1503L41.4414 39.1507C41.2214 39.3593 40.7815 39.7198 40.2284 40.0509C39.6841 40.3767 38.9479 40.724 38.1522 40.8119C37.3473 40.9009 36.5187 40.7669 35.6533 40.1762M33.5799 19.9223C33.9094 20.6214 34.2551 21.3918 34.6212 22.2074C36.4971 26.3871 38.9065 31.7554 42.3939 34.8246C42.5495 35.6114 42.381 36.257 42.0541 36.8504C41.6964 37.4996 41.1566 38.0422 40.7533 38.425C40.4145 38.7463 39.2265 39.6871 38.0424 39.818C37.4504 39.8834 36.8657 39.7931 36.217 39.3502M35.6533 40.1762L36.217 39.3502M35.6533 40.1762C35.6533 40.1762 35.6532 40.1761 35.6532 40.1761L36.217 39.3502M35.6533 40.1762C34.8217 39.6087 34.0108 38.6257 33.2919 37.0702M36.217 39.3502C35.5683 38.9075 34.8444 38.0708 34.1647 36.5745L33.8931 35.9765M30.3079 9.04038L30.734 8.10783L29.1673 8.14051M30.3079 9.04038L30.7954 8.08191L29.1007 8.14064C27.6796 8.18989 26.15 8.69478 24.9104 9.42894L29.1673 8.14051M29.1673 8.14051C29.1665 8.14049 29.1658 8.14047 29.165 8.14045C29.1493 8.14009 29.1272 8.1399 29.1007 8.14083C29.0981 8.14092 29.0954 8.14102 29.0928 8.14114L29.1347 9.12809L28.9095 9.02518L28.244 8.68673L28.2439 8.68693L27.9339 9.29651L29.1673 8.14051ZM19.5696 39.7826C19.5696 39.7827 19.5697 39.7827 19.5697 39.7828L18.6439 40.1579L19.5696 39.7826ZM19.5696 39.7826C19.0145 38.4127 18.5483 37.2311 18.8673 35.9672L18.8673 35.9672C19.1329 34.9153 19.9947 33.929 20.9645 32.9409L20.9646 32.9409C21.3787 32.519 21.7769 32.1516 22.0933 31.8712L22.6104 31.4129L22.9347 31.8632C23.1087 32.1048 23.2821 32.3533 23.4572 32.6042C24.2443 33.7321 25.0664 34.9101 26.1342 35.7363L19.5696 39.7826ZM33.8931 35.9765L33.2429 36.0675L26.1343 35.7363C27.698 36.9464 29.7429 37.5517 33.2919 37.0702M33.8931 35.9765L33.2698 36.2596L33.2697 36.2596L32.9826 36.3901L33.2543 36.9881C33.2668 37.0156 33.2793 37.043 33.2919 37.0702M33.8931 35.9765L33.988 36.6548L34.0317 36.9668L33.3815 37.0578L33.3814 37.0578C33.3514 37.062 33.3216 37.0661 33.2919 37.0702M1.75781 30.3314V47.2422V48.2422H2.75781H17.9733C18.5734 46.7359 19.2159 44.9318 19.4466 43.6001C19.6153 42.6258 19.1748 41.4705 18.6429 40.1583C18.6327 40.1332 18.6225 40.1081 18.6123 40.0829C18.0877 38.7892 17.4935 37.3238 17.8978 35.7225C18.2386 34.3722 19.3016 33.2076 20.2509 32.2404C20.6854 31.7977 21.1015 31.414 21.4301 31.1228L1.75781 30.3314ZM29.6875 22.875C29.9982 22.875 30.25 23.1268 30.25 23.4375C30.25 23.7482 29.9982 24 29.6875 24C29.3768 24 29.125 23.7482 29.125 23.4375C29.125 23.1268 29.3768 22.875 29.6875 22.875Z" stroke="white" stroke-width="2"/>
</g>
<defs>
<clipPath id="clip0_104_314">
<rect width="50" height="50" fill="white"/>
</clipPath>
</defs>
</svg>
