<svg width="50" height="50" viewBox="0 0 50 50" fill="none" xmlns="http://www.w3.org/2000/svg">
<g clip-path="url(#clip0_104_310)">
<path d="M4.00391 1.70508H3.00391V2.70508V7.19727V8.19727H4.00391H6.12891V8.95508V19.9414V20.6618L6.81222 20.8899L12.8669 22.9114L14.1836 23.351V23.3505L14.6255 23.4976L20.8704 25.5766C20.3222 26.3775 19.9961 27.3452 19.9961 28.3887C19.9961 30.4707 21.287 32.2667 23.1054 33.0148L21.7231 35.7236L16.5414 36.5516L14.6096 36.8603L15.9913 38.2453L19.6953 41.9583L18.8851 47.1404L18.5829 49.0729L20.3264 48.1863L25 45.8094L29.6736 48.1863L31.4171 49.0729L31.1149 47.1404L30.3047 41.9583L34.0087 38.2453L35.3904 36.8603L33.4586 36.5516L28.2769 35.7236L26.8946 33.0148C28.713 32.2667 30.0039 30.4707 30.0039 28.3887C30.0039 27.3452 29.6778 26.3775 29.1296 25.5766L35.3745 23.4976L35.8164 23.3505V23.351L37.1331 22.9114L43.1878 20.8899L43.8711 20.6618V19.9414V8.95508V8.19727H45.9961H46.9961V7.19727V2.70508V1.70508H45.9961H4.00391ZM25 27.1426C25.6977 27.1426 26.2461 27.691 26.2461 28.3887C26.2461 29.0864 25.6977 29.6348 25 29.6348C24.3023 29.6348 23.7539 29.0864 23.7539 28.3887C23.7539 27.691 24.3023 27.1426 25 27.1426Z" stroke="white" stroke-width="2"/>
</g>
<defs>
<clipPath id="clip0_104_310">
<rect width="50" height="50" fill="white"/>
</clipPath>
</defs>
</svg>
