<svg width="80" height="81" viewBox="0 0 80 81" fill="none" xmlns="http://www.w3.org/2000/svg">
<g clip-path="url(#clip0_104_407)">
<path d="M39.9576 0C17.8832 0.0242748 0 18.13 0 40.458C0.0112651 46.7954 1.49429 53.0415 4.32957 58.6929C7.16485 64.3444 11.2731 69.2431 16.3232 72.9943C16.1112 71.3509 16.1528 69.6541 16.4168 67.9759C13.7774 65.6586 11.484 62.9666 9.608 59.9838H19.564C20.5096 58.4909 21.484 57.0142 23.184 55.938C22.188 51.8113 21.5792 47.2671 21.4672 42.4809H22.544C22.8634 41.0642 23.3835 39.7015 24.088 38.4351H21.4936C21.6632 33.6327 22.328 29.0861 23.384 24.9788H38V32.1706C39.4145 32.3894 40.7732 32.8852 42 33.6303V24.9788H57.356C57.564 25.7855 57.752 26.6133 57.928 27.4524C59.2741 27.2438 60.6411 27.212 61.9952 27.3577C61.8403 26.5614 61.6698 25.7683 61.484 24.9788H72.596C74.2597 28.5616 75.3312 32.3961 75.768 36.3297C76.232 40.4151 76.2408 45.2102 74.7712 49.9001C74.2945 51.6919 73.6831 53.4443 72.9424 55.1418C73.8448 56.1023 74.9376 57.0102 76.036 57.9367C78.6334 52.4837 79.988 46.5108 80 40.458C80 18.1139 62.0912 0 40 0H39.9576ZM42 4.59765C46.2144 5.32266 50.2416 8.83441 53.4144 14.6612C54.4368 16.5392 55.3504 18.6479 56.1408 20.9322H42V4.59765ZM38 4.75705V20.9322H24.6C25.3904 18.6479 26.304 16.5392 27.3264 14.6612C30.312 9.17669 34.0568 5.74585 38 4.75705ZM28.784 5.85185C26.9248 7.75499 25.256 10.0757 23.8216 12.7095C22.4776 15.1774 21.3216 17.9423 20.372 20.9322H9.608C14.036 13.8876 20.788 8.49537 28.784 5.85185ZM52.312 6.22649C59.8304 8.98815 66.168 14.2113 70.392 20.9322H60.364C59.4168 17.9423 58.2624 15.1774 56.9184 12.7095C55.5776 10.2456 54.0272 8.05762 52.312 6.22649ZM7.4056 24.9788H19.252C18.256 29.1557 17.6456 33.6853 17.4896 38.4359H4.0576C4.30607 33.7743 5.44263 29.2051 7.4048 24.9796L7.4056 24.9788ZM4.0576 42.4809H17.4672C17.5704 47.2194 18.1232 51.749 19.0624 55.9372H7.4048C5.44263 51.7117 4.30607 47.1425 4.0576 42.4809Z" fill="white"/>
<path d="M60.8 30.5613C54.172 30.5613 48.8 35.9956 48.8 42.6987C48.8 49.4018 54.172 54.8361 60.8 54.8361C67.4264 54.8361 72.8 49.4018 72.8 42.6987C72.8 35.9956 67.4264 30.5613 60.8 30.5613ZM60.8 56.6348C47.544 56.6348 41.6 62.6477 41.6 76.0547V77.673C41.66 80.8611 43.0536 80.955 46 80.9097H75.6C79.356 80.9064 80.0256 80.9137 80 77.673V76.0547C80 62.6477 74.0544 56.6348 60.8 56.6348ZM35.2 35.1096C29.7703 35.1096 25.3671 39.5632 25.3671 45.0558C25.3671 50.5475 29.7703 54.9995 35.2 54.9995C40.6296 54.9995 45.0319 50.5475 45.0319 45.055C45.0319 39.5632 40.6296 35.1096 35.2 35.1096ZM35.2 56.4722C24.34 56.4722 19.4688 61.4 19.4688 72.3835V73.7098C19.5184 76.3217 20.6599 76.3986 23.0735 76.3614H38.372C37.9816 69.8169 39.8928 62.8662 44.6528 58.4474C42.2432 57.1155 39.1127 56.4722 35.2 56.4722Z" fill="white"/>
</g>
<defs>
<clipPath id="clip0_104_407">
<rect width="80" height="80.916" fill="white"/>
</clipPath>
</defs>
</svg>
