<svg width="131" height="43" viewBox="0 0 131 43" fill="none" xmlns="http://www.w3.org/2000/svg">
<path d="M29.7271 13.687C29.8173 13.5915 29.8878 13.4792 29.9347 13.3565C29.9815 13.2338 30.0037 13.103 29.9999 12.9717C29.9962 12.8404 29.9667 12.7111 29.913 12.5912C29.8593 12.4714 29.7826 12.3632 29.6871 12.273C29.5916 12.1828 29.4793 12.1123 29.3566 12.0654C29.2339 12.0186 29.1031 11.9964 28.9718 12.0002C28.8405 12.0039 28.7112 12.0334 28.5913 12.0871C28.4715 12.1408 28.3633 12.2175 28.2731 12.313L19.7731 21.313C19.5976 21.4987 19.4998 21.7445 19.4998 22C19.4998 22.2555 19.5976 22.5013 19.7731 22.687L28.2731 31.688C28.3627 31.7856 28.4708 31.8643 28.5912 31.9198C28.7115 31.9752 28.8416 32.0062 28.974 32.0109C29.1064 32.0156 29.2384 31.9939 29.3624 31.9472C29.4863 31.9004 29.5998 31.8295 29.6961 31.7386C29.7924 31.6476 29.8697 31.5384 29.9235 31.4173C29.9772 31.2963 30.0064 31.1657 30.0093 31.0333C30.0122 30.9008 29.9887 30.7691 29.9403 30.6458C29.8918 30.5225 29.8194 30.4101 29.7271 30.315L21.8751 22L29.7271 13.687Z" fill="white"/>
<rect x="1" y="1" width="51" height="41" rx="5" stroke="white" stroke-width="2"/>
<path d="M101.273 13.687C101.183 13.5915 101.112 13.4792 101.065 13.3565C101.019 13.2338 100.996 13.103 101 12.9717C101.004 12.8404 101.033 12.7111 101.087 12.5912C101.141 12.4714 101.217 12.3632 101.313 12.273C101.408 12.1828 101.521 12.1123 101.643 12.0654C101.766 12.0186 101.897 11.9964 102.028 12.0002C102.159 12.0039 102.289 12.0334 102.409 12.0871C102.529 12.1408 102.637 12.2175 102.727 12.313L111.227 21.313C111.402 21.4987 111.5 21.7445 111.5 22C111.5 22.2555 111.402 22.5013 111.227 22.687L102.727 31.688C102.637 31.7856 102.529 31.8643 102.409 31.9198C102.289 31.9752 102.158 32.0062 102.026 32.0109C101.894 32.0156 101.762 31.9939 101.638 31.9472C101.514 31.9004 101.4 31.8295 101.304 31.7386C101.208 31.6476 101.13 31.5384 101.077 31.4173C101.023 31.2963 100.994 31.1657 100.991 31.0333C100.988 30.9008 101.011 30.7691 101.06 30.6458C101.108 30.5225 101.181 30.4101 101.273 30.315L109.125 22L101.273 13.687Z" fill="white"/>
<rect x="-1" y="1" width="51" height="41" rx="5" transform="matrix(-1 0 0 1 129 0)" stroke="white" stroke-width="2"/>
</svg>
