<svg width="80" height="81" viewBox="0 0 80 81" fill="none" xmlns="http://www.w3.org/2000/svg">
<path d="M20 69.1158C23.3333 37.0865 38.3333 26.972 66.6667 20.229" stroke="white" stroke-width="3.125" stroke-linecap="round" stroke-linejoin="round"/>
<path d="M53.03 12.8454L67.9833 19.8919L61.01 35.0164M53.3333 68.2493L60.4033 61.095M60.4033 61.095L67.4767 53.944M60.4033 61.095L53.3333 53.944M60.4033 61.095L67.4767 68.2493M16.6667 23.6005C18.4348 23.6005 20.1305 22.8901 21.3807 21.6255C22.631 20.361 23.3333 18.6459 23.3333 16.8575C23.3333 15.0691 22.631 13.354 21.3807 12.0895C20.1305 10.8249 18.4348 10.1145 16.6667 10.1145C14.8986 10.1145 13.2029 10.8249 11.9526 12.0895C10.7024 13.354 10 15.0691 10 16.8575C10 18.6459 10.7024 20.361 11.9526 21.6255C13.2029 22.8901 14.8986 23.6005 16.6667 23.6005Z" stroke="white" stroke-width="3.125" stroke-linecap="round" stroke-linejoin="round"/>
</svg>
