<svg width="54" height="55" viewBox="0 0 54 55" fill="none" xmlns="http://www.w3.org/2000/svg">
<mask id="path-1-outside-1_104_371" maskUnits="userSpaceOnUse" x="0" y="0" width="54" height="55" fill="black">
<rect fill="white" width="54" height="55"/>
<path d="M51.2843 49.2454H50.6653C50.3268 49.2454 50.3268 48.7541 50.3268 48.7541V14.1418C50.3281 13.9344 50.2956 13.7288 50.2312 13.5366C50.1667 13.3444 50.0716 13.1695 49.9513 13.0217C49.8309 12.874 49.6877 12.7564 49.5298 12.6756C49.3719 12.5949 49.2023 12.5525 49.0309 12.551H39.0696C39.0235 12.5546 38.9774 12.5461 38.9343 12.526C38.8912 12.506 38.8522 12.4749 38.82 12.4349C38.7879 12.3948 38.7633 12.3468 38.7479 12.2942C38.7325 12.2415 38.7268 12.1855 38.7311 12.1299V5.4624C38.7311 5.39222 38.7311 5.32203 38.9342 5.32203C39.1249 5.31896 39.3069 5.22517 39.4409 5.06098C39.5748 4.89679 39.6499 4.6754 39.6499 4.44474V2.8773C39.6499 2.64664 39.5748 2.42525 39.4409 2.26105C39.3069 2.09686 39.1249 2.00308 38.9342 2H15.7911C15.6004 2.00308 15.4184 2.09686 15.2845 2.26105C15.1505 2.42525 15.0754 2.64664 15.0755 2.8773V4.44474C15.0754 4.6754 15.1505 4.89679 15.2845 5.06098C15.4184 5.22517 15.6004 5.31896 15.7911 5.32203C15.8194 5.32036 15.8477 5.32587 15.8742 5.33821C15.9006 5.35055 15.9246 5.36945 15.9447 5.39369C15.9647 5.41793 15.9803 5.44697 15.9905 5.47895C16.0007 5.51093 16.0053 5.54514 16.0039 5.57938V11.9778C16.0039 11.9778 16.0039 12.551 15.7331 12.551H4.96911C4.79522 12.5478 4.62256 12.5868 4.46128 12.6655C4.3 12.7442 4.15334 12.861 4.02992 13.0092C3.90649 13.1574 3.80879 13.3339 3.74255 13.5284C3.6763 13.7229 3.64285 13.9315 3.64416 14.1418V48.8594C3.64416 49.1986 3.49909 49.2454 3.20896 49.2454H2.71573C2.52504 49.2485 2.34302 49.3423 2.20908 49.5065C2.07514 49.6707 2.00005 49.8921 2.00007 50.1227V51.9241C1.99879 52.0393 2.01628 52.1537 2.05156 52.2607C2.08684 52.3678 2.1392 52.4653 2.20565 52.5479C2.27211 52.6305 2.35136 52.6964 2.43888 52.7419C2.5264 52.7874 2.62048 52.8116 2.71573 52.8131H51.2843C51.3795 52.8116 51.4736 52.7874 51.5611 52.7419C51.6486 52.6964 51.7279 52.6305 51.7943 52.5479C51.8608 52.4653 51.9132 52.3678 51.9484 52.2607C51.9837 52.1537 52.0012 52.0393 51.9999 51.9241V50.1227C52 49.8921 51.9249 49.6707 51.7909 49.5065C51.657 49.3423 51.475 49.2485 51.2843 49.2454ZM30.1044 20.1425H34.3888C34.541 20.1456 34.6861 20.2209 34.7928 20.3522C34.8996 20.4835 34.9594 20.6602 34.9594 20.8444V26.1198C34.9594 26.304 34.8996 26.4807 34.7928 26.612C34.6861 26.7433 34.541 26.8186 34.3888 26.8217H30.1044C30.0287 26.8217 29.9537 26.8035 29.8838 26.7681C29.814 26.7326 29.7506 26.6808 29.6975 26.6154C29.6444 26.5501 29.6026 26.4726 29.5745 26.3875C29.5464 26.3025 29.5326 26.2115 29.5338 26.1198V20.8444C29.5326 20.7528 29.5464 20.6617 29.5745 20.5767C29.6026 20.4916 29.6444 20.4141 29.6975 20.3488C29.7506 20.2834 29.814 20.2316 29.8838 20.1962C29.9537 20.1607 30.0287 20.1425 30.1044 20.1425ZM29.5338 16.8322V11.6035C29.5326 11.5119 29.5464 11.4209 29.5745 11.3358C29.6026 11.2507 29.6444 11.1732 29.6975 11.1079C29.7506 11.0426 29.814 10.9907 29.8838 10.9553C29.9537 10.9199 30.0287 10.9016 30.1044 10.9017H34.3888C34.541 10.9047 34.6861 10.98 34.7928 11.1113C34.8996 11.2426 34.9594 11.4194 34.9594 11.6035V16.8322C34.9594 17.0163 34.8996 17.1931 34.7928 17.3244C34.6861 17.4557 34.541 17.531 34.3888 17.534H30.1044C30.0287 17.534 29.9537 17.5158 29.8838 17.4804C29.814 17.445 29.7506 17.3931 29.6975 17.3278C29.6444 17.2624 29.6026 17.185 29.5745 17.0999C29.5464 17.0148 29.5326 16.9238 29.5338 16.8322ZM30.1044 29.0091H34.3888C34.541 29.0121 34.6861 29.0874 34.7928 29.2187C34.8996 29.35 34.9594 29.5268 34.9594 29.7109V34.9864C34.9594 35.1705 34.8996 35.3473 34.7928 35.4786C34.6861 35.6099 34.541 35.6852 34.3888 35.6882H30.1044C30.0287 35.6883 29.9537 35.67 29.8838 35.6346C29.814 35.5992 29.7506 35.5473 29.6975 35.482C29.6444 35.4167 29.6026 35.3392 29.5745 35.2541C29.5464 35.169 29.5326 35.078 29.5338 34.9864V29.7577C29.5326 29.6661 29.5464 29.5751 29.5745 29.49C29.6026 29.4049 29.6444 29.3275 29.6975 29.2621C29.7506 29.1968 29.814 29.1449 29.8838 29.1095C29.9537 29.0741 30.0287 29.0559 30.1044 29.0559V29.0091ZM30.7234 39.6536C30.8756 39.6567 31.0207 39.732 31.1275 39.8633C31.2342 39.9946 31.294 40.1713 31.294 40.3555V48.5436C31.294 48.7277 31.2342 48.9045 31.1275 49.0358C31.0207 49.1671 30.8756 49.2424 30.7234 49.2454H24.1083C23.9544 49.2454 23.8068 49.1715 23.698 49.0399C23.5892 48.9082 23.5281 48.7297 23.5281 48.5436V40.3555C23.5281 40.1693 23.5892 39.9908 23.698 39.8592C23.8068 39.7276 23.9544 39.6536 24.1083 39.6536H30.7234ZM25.2108 16.8322C25.2109 17.0163 25.1511 17.1931 25.0443 17.3244C24.9376 17.4557 24.7925 17.531 24.6402 17.534H20.3559C20.2802 17.534 20.2052 17.5158 20.1353 17.4804C20.0654 17.445 20.0021 17.3931 19.949 17.3278C19.8959 17.2624 19.854 17.185 19.8259 17.0999C19.7978 17.0148 19.784 16.9238 19.7853 16.8322V11.6035C19.784 11.5119 19.7978 11.4209 19.8259 11.3358C19.854 11.2507 19.8959 11.1732 19.949 11.1079C20.0021 11.0426 20.0654 10.9907 20.1353 10.9553C20.2052 10.9199 20.2802 10.9016 20.3559 10.9017H24.6402C24.7925 10.9047 24.9376 10.98 25.0443 11.1113C25.1511 11.2426 25.2109 11.4194 25.2108 11.6035V16.8322ZM20.3753 20.0957H24.6596C24.8118 20.0988 24.9569 20.1741 25.0637 20.3054C25.1704 20.4367 25.2302 20.6134 25.2302 20.7976V26.0731C25.2302 26.2572 25.1704 26.434 25.0637 26.5652C24.9569 26.6965 24.8118 26.7718 24.6596 26.7749H20.3559C20.2802 26.7749 20.2052 26.7567 20.1353 26.7213C20.0654 26.6859 20.0021 26.634 19.949 26.5686C19.8959 26.5033 19.854 26.4258 19.8259 26.3408C19.7978 26.2557 19.784 26.1647 19.7853 26.0731V20.8444C19.784 20.7528 19.7978 20.6617 19.8259 20.5767C19.854 20.4916 19.8959 20.4141 19.949 20.3488C20.0021 20.2834 20.0654 20.2316 20.1353 20.1962C20.2052 20.1607 20.2802 20.1425 20.3559 20.1425L20.3753 20.0957ZM20.3753 29.0091H24.6596C24.8118 29.0121 24.9569 29.0874 25.0637 29.2187C25.1704 29.35 25.2302 29.5268 25.2302 29.7109V34.9864C25.2302 35.1705 25.1704 35.3473 25.0637 35.4786C24.9569 35.6099 24.8118 35.6852 24.6596 35.6882H20.3559C20.2802 35.6883 20.2052 35.67 20.1353 35.6346C20.0654 35.5992 20.0021 35.5473 19.949 35.482C19.8959 35.4167 19.854 35.3392 19.8259 35.2541C19.7978 35.169 19.784 35.078 19.7853 34.9864V29.7577C19.784 29.6661 19.7978 29.5751 19.8259 29.49C19.854 29.4049 19.8959 29.3275 19.949 29.2621C20.0021 29.1968 20.0654 29.1449 20.1353 29.1095C20.2052 29.0741 20.2802 29.0559 20.3559 29.0559L20.3753 29.0091ZM40.3945 20.6806C40.3945 20.4965 40.4543 20.3197 40.5611 20.1884C40.6678 20.0571 40.8129 19.9818 40.9651 19.9788H45.2301C45.384 19.9788 45.5316 20.0527 45.6404 20.1843C45.7493 20.3159 45.8104 20.4945 45.8104 20.6806V25.9561C45.8104 26.1422 45.7493 26.3207 45.6404 26.4524C45.5316 26.584 45.384 26.6579 45.2301 26.6579H40.9845C40.8323 26.6549 40.6871 26.5796 40.5804 26.4483C40.4737 26.317 40.4139 26.1402 40.4139 25.9561L40.3945 20.6806ZM40.3945 29.9215C40.3945 29.7373 40.4543 29.5606 40.5611 29.4293C40.6678 29.298 40.8129 29.2227 40.9651 29.2196H45.2301C45.384 29.2196 45.5316 29.2936 45.6404 29.4252C45.7493 29.5568 45.8104 29.7353 45.8104 29.9215V35.197C45.8104 35.3831 45.7493 35.5616 45.6404 35.6932C45.5316 35.8249 45.384 35.8988 45.2301 35.8988H40.9845C40.8323 35.8957 40.6871 35.8204 40.5804 35.6891C40.4737 35.5578 40.4139 35.3811 40.4139 35.197L40.3945 29.9215ZM40.3945 38.8348C40.3945 38.6507 40.4543 38.4739 40.5611 38.3426C40.6678 38.2113 40.8129 38.136 40.9651 38.133H45.2301C45.384 38.133 45.5316 38.2069 45.6404 38.3385C45.7493 38.4702 45.8104 38.6487 45.8104 38.8348V44.1103C45.8104 44.2964 45.7493 44.475 45.6404 44.6066C45.5316 44.7382 45.384 44.8121 45.2301 44.8121H40.9845C40.8323 44.8091 40.6871 44.7338 40.5804 44.6025C40.4737 44.4712 40.4139 44.2944 40.4139 44.1103L40.3945 38.8348ZM8.16059 20.6806C8.16057 20.4965 8.22038 20.3197 8.32711 20.1884C8.43385 20.0571 8.57897 19.9818 8.73119 19.9788H13.0155C13.0913 19.9787 13.1663 19.997 13.2361 20.0324C13.306 20.0678 13.3693 20.1197 13.4224 20.185C13.4756 20.2503 13.5174 20.3278 13.5455 20.4129C13.5736 20.498 13.5874 20.589 13.5861 20.6806V25.9561C13.5874 26.0477 13.5736 26.1387 13.5455 26.2238C13.5174 26.3089 13.4756 26.3863 13.4224 26.4517C13.3693 26.517 13.306 26.5689 13.2361 26.6043C13.1663 26.6397 13.0913 26.6579 13.0155 26.6579H8.73119C8.57897 26.6549 8.43385 26.5796 8.32711 26.4483C8.22038 26.317 8.16057 26.1402 8.16059 25.9561V20.6806ZM8.16059 29.9215C8.16057 29.7373 8.22038 29.5606 8.32711 29.4293C8.43385 29.298 8.57897 29.2227 8.73119 29.2196H13.0155C13.0913 29.2196 13.1663 29.2379 13.2361 29.2733C13.306 29.3087 13.3693 29.3606 13.4224 29.4259C13.4756 29.4912 13.5174 29.5687 13.5455 29.6538C13.5736 29.7389 13.5874 29.8299 13.5861 29.9215V35.197C13.5874 35.2886 13.5736 35.3796 13.5455 35.4647C13.5174 35.5497 13.4756 35.6272 13.4224 35.6925C13.3693 35.7579 13.306 35.8097 13.2361 35.8452C13.1663 35.8806 13.0913 35.8988 13.0155 35.8988H8.73119C8.57897 35.8957 8.43385 35.8204 8.32711 35.6891C8.22038 35.5578 8.16057 35.3811 8.16059 35.197V29.9215ZM8.16059 38.8348C8.16057 38.6507 8.22038 38.4739 8.32711 38.3426C8.43385 38.2113 8.57897 38.136 8.73119 38.133H13.0155C13.0913 38.133 13.1663 38.1512 13.2361 38.1866C13.306 38.222 13.3693 38.2739 13.4224 38.3392C13.4756 38.4046 13.5174 38.482 13.5455 38.5671C13.5736 38.6522 13.5874 38.7432 13.5861 38.8348V44.1103C13.5874 44.2019 13.5736 44.2929 13.5455 44.378C13.5174 44.4631 13.4756 44.5406 13.4224 44.6059C13.3693 44.6712 13.306 44.7231 13.2361 44.7585C13.1663 44.7939 13.0913 44.8122 13.0155 44.8121H8.73119C8.57897 44.8091 8.43385 44.7338 8.32711 44.6025C8.22038 44.4712 8.16057 44.2944 8.16059 44.1103V38.8348Z"/>
</mask>
<path d="M51.2843 49.2454H50.6653C50.3268 49.2454 50.3268 48.7541 50.3268 48.7541V14.1418C50.3281 13.9344 50.2956 13.7288 50.2312 13.5366C50.1667 13.3444 50.0716 13.1695 49.9513 13.0217C49.8309 12.874 49.6877 12.7564 49.5298 12.6756C49.3719 12.5949 49.2023 12.5525 49.0309 12.551H39.0696C39.0235 12.5546 38.9774 12.5461 38.9343 12.526C38.8912 12.506 38.8522 12.4749 38.82 12.4349C38.7879 12.3948 38.7633 12.3468 38.7479 12.2942C38.7325 12.2415 38.7268 12.1855 38.7311 12.1299V5.4624C38.7311 5.39222 38.7311 5.32203 38.9342 5.32203C39.1249 5.31896 39.3069 5.22517 39.4409 5.06098C39.5748 4.89679 39.6499 4.6754 39.6499 4.44474V2.8773C39.6499 2.64664 39.5748 2.42525 39.4409 2.26105C39.3069 2.09686 39.1249 2.00308 38.9342 2H15.7911C15.6004 2.00308 15.4184 2.09686 15.2845 2.26105C15.1505 2.42525 15.0754 2.64664 15.0755 2.8773V4.44474C15.0754 4.6754 15.1505 4.89679 15.2845 5.06098C15.4184 5.22517 15.6004 5.31896 15.7911 5.32203C15.8194 5.32036 15.8477 5.32587 15.8742 5.33821C15.9006 5.35055 15.9246 5.36945 15.9447 5.39369C15.9647 5.41793 15.9803 5.44697 15.9905 5.47895C16.0007 5.51093 16.0053 5.54514 16.0039 5.57938V11.9778C16.0039 11.9778 16.0039 12.551 15.7331 12.551H4.96911C4.79522 12.5478 4.62256 12.5868 4.46128 12.6655C4.3 12.7442 4.15334 12.861 4.02992 13.0092C3.90649 13.1574 3.80879 13.3339 3.74255 13.5284C3.6763 13.7229 3.64285 13.9315 3.64416 14.1418V48.8594C3.64416 49.1986 3.49909 49.2454 3.20896 49.2454H2.71573C2.52504 49.2485 2.34302 49.3423 2.20908 49.5065C2.07514 49.6707 2.00005 49.8921 2.00007 50.1227V51.9241C1.99879 52.0393 2.01628 52.1537 2.05156 52.2607C2.08684 52.3678 2.1392 52.4653 2.20565 52.5479C2.27211 52.6305 2.35136 52.6964 2.43888 52.7419C2.5264 52.7874 2.62048 52.8116 2.71573 52.8131H51.2843C51.3795 52.8116 51.4736 52.7874 51.5611 52.7419C51.6486 52.6964 51.7279 52.6305 51.7943 52.5479C51.8608 52.4653 51.9132 52.3678 51.9484 52.2607C51.9837 52.1537 52.0012 52.0393 51.9999 51.9241V50.1227C52 49.8921 51.9249 49.6707 51.7909 49.5065C51.657 49.3423 51.475 49.2485 51.2843 49.2454ZM30.1044 20.1425H34.3888C34.541 20.1456 34.6861 20.2209 34.7928 20.3522C34.8996 20.4835 34.9594 20.6602 34.9594 20.8444V26.1198C34.9594 26.304 34.8996 26.4807 34.7928 26.612C34.6861 26.7433 34.541 26.8186 34.3888 26.8217H30.1044C30.0287 26.8217 29.9537 26.8035 29.8838 26.7681C29.814 26.7326 29.7506 26.6808 29.6975 26.6154C29.6444 26.5501 29.6026 26.4726 29.5745 26.3875C29.5464 26.3025 29.5326 26.2115 29.5338 26.1198V20.8444C29.5326 20.7528 29.5464 20.6617 29.5745 20.5767C29.6026 20.4916 29.6444 20.4141 29.6975 20.3488C29.7506 20.2834 29.814 20.2316 29.8838 20.1962C29.9537 20.1607 30.0287 20.1425 30.1044 20.1425ZM29.5338 16.8322V11.6035C29.5326 11.5119 29.5464 11.4209 29.5745 11.3358C29.6026 11.2507 29.6444 11.1732 29.6975 11.1079C29.7506 11.0426 29.814 10.9907 29.8838 10.9553C29.9537 10.9199 30.0287 10.9016 30.1044 10.9017H34.3888C34.541 10.9047 34.6861 10.98 34.7928 11.1113C34.8996 11.2426 34.9594 11.4194 34.9594 11.6035V16.8322C34.9594 17.0163 34.8996 17.1931 34.7928 17.3244C34.6861 17.4557 34.541 17.531 34.3888 17.534H30.1044C30.0287 17.534 29.9537 17.5158 29.8838 17.4804C29.814 17.445 29.7506 17.3931 29.6975 17.3278C29.6444 17.2624 29.6026 17.185 29.5745 17.0999C29.5464 17.0148 29.5326 16.9238 29.5338 16.8322ZM30.1044 29.0091H34.3888C34.541 29.0121 34.6861 29.0874 34.7928 29.2187C34.8996 29.35 34.9594 29.5268 34.9594 29.7109V34.9864C34.9594 35.1705 34.8996 35.3473 34.7928 35.4786C34.6861 35.6099 34.541 35.6852 34.3888 35.6882H30.1044C30.0287 35.6883 29.9537 35.67 29.8838 35.6346C29.814 35.5992 29.7506 35.5473 29.6975 35.482C29.6444 35.4167 29.6026 35.3392 29.5745 35.2541C29.5464 35.169 29.5326 35.078 29.5338 34.9864V29.7577C29.5326 29.6661 29.5464 29.5751 29.5745 29.49C29.6026 29.4049 29.6444 29.3275 29.6975 29.2621C29.7506 29.1968 29.814 29.1449 29.8838 29.1095C29.9537 29.0741 30.0287 29.0559 30.1044 29.0559V29.0091ZM30.7234 39.6536C30.8756 39.6567 31.0207 39.732 31.1275 39.8633C31.2342 39.9946 31.294 40.1713 31.294 40.3555V48.5436C31.294 48.7277 31.2342 48.9045 31.1275 49.0358C31.0207 49.1671 30.8756 49.2424 30.7234 49.2454H24.1083C23.9544 49.2454 23.8068 49.1715 23.698 49.0399C23.5892 48.9082 23.5281 48.7297 23.5281 48.5436V40.3555C23.5281 40.1693 23.5892 39.9908 23.698 39.8592C23.8068 39.7276 23.9544 39.6536 24.1083 39.6536H30.7234ZM25.2108 16.8322C25.2109 17.0163 25.1511 17.1931 25.0443 17.3244C24.9376 17.4557 24.7925 17.531 24.6402 17.534H20.3559C20.2802 17.534 20.2052 17.5158 20.1353 17.4804C20.0654 17.445 20.0021 17.3931 19.949 17.3278C19.8959 17.2624 19.854 17.185 19.8259 17.0999C19.7978 17.0148 19.784 16.9238 19.7853 16.8322V11.6035C19.784 11.5119 19.7978 11.4209 19.8259 11.3358C19.854 11.2507 19.8959 11.1732 19.949 11.1079C20.0021 11.0426 20.0654 10.9907 20.1353 10.9553C20.2052 10.9199 20.2802 10.9016 20.3559 10.9017H24.6402C24.7925 10.9047 24.9376 10.98 25.0443 11.1113C25.1511 11.2426 25.2109 11.4194 25.2108 11.6035V16.8322ZM20.3753 20.0957H24.6596C24.8118 20.0988 24.9569 20.1741 25.0637 20.3054C25.1704 20.4367 25.2302 20.6134 25.2302 20.7976V26.0731C25.2302 26.2572 25.1704 26.434 25.0637 26.5652C24.9569 26.6965 24.8118 26.7718 24.6596 26.7749H20.3559C20.2802 26.7749 20.2052 26.7567 20.1353 26.7213C20.0654 26.6859 20.0021 26.634 19.949 26.5686C19.8959 26.5033 19.854 26.4258 19.8259 26.3408C19.7978 26.2557 19.784 26.1647 19.7853 26.0731V20.8444C19.784 20.7528 19.7978 20.6617 19.8259 20.5767C19.854 20.4916 19.8959 20.4141 19.949 20.3488C20.0021 20.2834 20.0654 20.2316 20.1353 20.1962C20.2052 20.1607 20.2802 20.1425 20.3559 20.1425L20.3753 20.0957ZM20.3753 29.0091H24.6596C24.8118 29.0121 24.9569 29.0874 25.0637 29.2187C25.1704 29.35 25.2302 29.5268 25.2302 29.7109V34.9864C25.2302 35.1705 25.1704 35.3473 25.0637 35.4786C24.9569 35.6099 24.8118 35.6852 24.6596 35.6882H20.3559C20.2802 35.6883 20.2052 35.67 20.1353 35.6346C20.0654 35.5992 20.0021 35.5473 19.949 35.482C19.8959 35.4167 19.854 35.3392 19.8259 35.2541C19.7978 35.169 19.784 35.078 19.7853 34.9864V29.7577C19.784 29.6661 19.7978 29.5751 19.8259 29.49C19.854 29.4049 19.8959 29.3275 19.949 29.2621C20.0021 29.1968 20.0654 29.1449 20.1353 29.1095C20.2052 29.0741 20.2802 29.0559 20.3559 29.0559L20.3753 29.0091ZM40.3945 20.6806C40.3945 20.4965 40.4543 20.3197 40.5611 20.1884C40.6678 20.0571 40.8129 19.9818 40.9651 19.9788H45.2301C45.384 19.9788 45.5316 20.0527 45.6404 20.1843C45.7493 20.3159 45.8104 20.4945 45.8104 20.6806V25.9561C45.8104 26.1422 45.7493 26.3207 45.6404 26.4524C45.5316 26.584 45.384 26.6579 45.2301 26.6579H40.9845C40.8323 26.6549 40.6871 26.5796 40.5804 26.4483C40.4737 26.317 40.4139 26.1402 40.4139 25.9561L40.3945 20.6806ZM40.3945 29.9215C40.3945 29.7373 40.4543 29.5606 40.5611 29.4293C40.6678 29.298 40.8129 29.2227 40.9651 29.2196H45.2301C45.384 29.2196 45.5316 29.2936 45.6404 29.4252C45.7493 29.5568 45.8104 29.7353 45.8104 29.9215V35.197C45.8104 35.3831 45.7493 35.5616 45.6404 35.6932C45.5316 35.8249 45.384 35.8988 45.2301 35.8988H40.9845C40.8323 35.8957 40.6871 35.8204 40.5804 35.6891C40.4737 35.5578 40.4139 35.3811 40.4139 35.197L40.3945 29.9215ZM40.3945 38.8348C40.3945 38.6507 40.4543 38.4739 40.5611 38.3426C40.6678 38.2113 40.8129 38.136 40.9651 38.133H45.2301C45.384 38.133 45.5316 38.2069 45.6404 38.3385C45.7493 38.4702 45.8104 38.6487 45.8104 38.8348V44.1103C45.8104 44.2964 45.7493 44.475 45.6404 44.6066C45.5316 44.7382 45.384 44.8121 45.2301 44.8121H40.9845C40.8323 44.8091 40.6871 44.7338 40.5804 44.6025C40.4737 44.4712 40.4139 44.2944 40.4139 44.1103L40.3945 38.8348ZM8.16059 20.6806C8.16057 20.4965 8.22038 20.3197 8.32711 20.1884C8.43385 20.0571 8.57897 19.9818 8.73119 19.9788H13.0155C13.0913 19.9787 13.1663 19.997 13.2361 20.0324C13.306 20.0678 13.3693 20.1197 13.4224 20.185C13.4756 20.2503 13.5174 20.3278 13.5455 20.4129C13.5736 20.498 13.5874 20.589 13.5861 20.6806V25.9561C13.5874 26.0477 13.5736 26.1387 13.5455 26.2238C13.5174 26.3089 13.4756 26.3863 13.4224 26.4517C13.3693 26.517 13.306 26.5689 13.2361 26.6043C13.1663 26.6397 13.0913 26.6579 13.0155 26.6579H8.73119C8.57897 26.6549 8.43385 26.5796 8.32711 26.4483C8.22038 26.317 8.16057 26.1402 8.16059 25.9561V20.6806ZM8.16059 29.9215C8.16057 29.7373 8.22038 29.5606 8.32711 29.4293C8.43385 29.298 8.57897 29.2227 8.73119 29.2196H13.0155C13.0913 29.2196 13.1663 29.2379 13.2361 29.2733C13.306 29.3087 13.3693 29.3606 13.4224 29.4259C13.4756 29.4912 13.5174 29.5687 13.5455 29.6538C13.5736 29.7389 13.5874 29.8299 13.5861 29.9215V35.197C13.5874 35.2886 13.5736 35.3796 13.5455 35.4647C13.5174 35.5497 13.4756 35.6272 13.4224 35.6925C13.3693 35.7579 13.306 35.8097 13.2361 35.8452C13.1663 35.8806 13.0913 35.8988 13.0155 35.8988H8.73119C8.57897 35.8957 8.43385 35.8204 8.32711 35.6891C8.22038 35.5578 8.16057 35.3811 8.16059 35.197V29.9215ZM8.16059 38.8348C8.16057 38.6507 8.22038 38.4739 8.32711 38.3426C8.43385 38.2113 8.57897 38.136 8.73119 38.133H13.0155C13.0913 38.133 13.1663 38.1512 13.2361 38.1866C13.306 38.222 13.3693 38.2739 13.4224 38.3392C13.4756 38.4046 13.5174 38.482 13.5455 38.5671C13.5736 38.6522 13.5874 38.7432 13.5861 38.8348V44.1103C13.5874 44.2019 13.5736 44.2929 13.5455 44.378C13.5174 44.4631 13.4756 44.5406 13.4224 44.6059C13.3693 44.6712 13.306 44.7231 13.2361 44.7585C13.1663 44.7939 13.0913 44.8122 13.0155 44.8121H8.73119C8.57897 44.8091 8.43385 44.7338 8.32711 44.6025C8.22038 44.4712 8.16057 44.2944 8.16059 44.1103V38.8348Z" stroke="white" stroke-width="4" mask="url(#path-1-outside-1_104_371)"/>
</svg>
