<svg width="300" height="300" viewBox="0 0 300 300" fill="none" xmlns="http://www.w3.org/2000/svg">
<path d="M36.235 190.879L34.7389 175.364H32.4487L28.1267 181.367L23.8048 175.364H20.8496L21.3298 177.304L20 190.879H22.5304L23.5647 178.929L27.4803 184.23H28.7732L32.6703 178.929L33.7046 190.879H36.235ZM44.2509 178.523C40.797 178.523 38.5253 180.905 38.5253 184.858C38.5253 188.94 41.0741 191.193 45.2483 191.193C46.3749 191.193 47.8341 190.934 48.8684 190.546V188.459C47.7971 188.81 46.4303 189.069 45.2483 189.069C42.8841 189.069 41.2588 188.072 41.0556 185.652H49.8103C49.8473 185.393 49.8473 185.135 49.8473 184.858C49.8473 180.905 47.7417 178.523 44.2509 178.523ZM47.4462 183.676H41.0741C41.3142 181.626 42.5332 180.517 44.2509 180.517C45.9132 180.517 47.1876 181.57 47.4462 183.676ZM60.3936 190.916V188.792C59.8949 188.977 59.2854 189.069 58.7128 189.069C57.032 189.069 56.2748 188.293 56.2748 186.871V180.905H60.3936V178.8H56.2748V175.18L53.8552 175.549V178.8H51.2694V180.905H53.8552V186.871C53.8552 189.568 55.6283 191.193 58.7128 191.193C59.2299 191.193 59.8949 191.064 60.3936 190.916ZM70.8475 190.916V188.792C70.3488 188.977 69.7208 189.069 69.1667 189.069C67.486 189.069 66.7287 188.293 66.7287 186.871V180.905H70.8475V178.8H66.7287V175.18L64.2907 175.549V178.8H61.7049V180.905H64.2907V186.871C64.2907 189.568 66.0823 191.193 69.1667 191.193C69.6839 191.193 70.3488 191.064 70.8475 190.916ZM78.5494 178.523C75.0771 178.523 72.8053 180.905 72.8053 184.858C72.8053 188.94 75.3726 191.193 79.5283 191.193C80.6734 191.193 82.1141 190.934 83.1484 190.546V188.459C82.0956 188.81 80.7104 189.069 79.5283 189.069C77.1826 189.069 75.5388 188.072 75.3357 185.652H84.1088C84.1273 185.393 84.1273 185.135 84.1273 184.858C84.1273 180.905 82.0402 178.523 78.5494 178.523ZM81.7262 183.676H75.3726C75.5942 181.626 76.8132 180.517 78.5494 180.517C80.1932 180.517 81.4676 181.57 81.7262 183.676ZM97.3148 178.8H92.4387V179.668L94.0271 180.443L91.3121 187.628L88.006 178.8H85.3463L90.0561 190.399L87.0271 197.787H89.5574L97.3148 178.8ZM109.653 178.8H104.758V179.668L106.365 180.443L103.65 187.628L100.344 178.8H97.6842L102.394 190.399L99.3649 197.787H101.895L109.653 178.8ZM123.228 190.879V188.81C122.859 188.94 122.452 189.069 122.009 189.069C121.418 189.069 121.159 188.792 121.159 188.201V183.048C121.159 180.13 119.091 178.523 115.748 178.523C114.676 178.523 113.328 178.763 112.109 179.095V182.641H112.94L113.901 180.831C114.547 180.702 115.212 180.61 115.748 180.61C117.742 180.61 118.721 181.478 118.721 183.048V183.75H115.471C112.442 183.75 110.872 185.301 110.872 187.333C110.872 189.531 112.645 191.193 115.877 191.193C117.133 191.193 118.333 190.86 119.331 190.362C119.756 190.879 120.531 191.193 121.399 191.193C122.046 191.193 122.729 191.045 123.228 190.879ZM118.721 188.589C117.872 188.995 116.874 189.254 115.877 189.254C114.178 189.254 113.328 188.533 113.328 187.333C113.328 186.298 113.975 185.652 115.471 185.652H118.721V188.589ZM146.094 190.879L139.888 175.364H136.489V177.304L131.059 190.879H133.885L135.326 187H141.846L143.286 190.879H146.094ZM141.014 184.784H136.138L138.595 178.264L141.014 184.784ZM159.687 190.879V190.029L157.804 189.069V183.048C157.804 180.185 155.827 178.523 152.632 178.523C151.044 178.523 149.141 178.837 147.553 179.298L147.146 179.409L147.719 181.312V190.879H150.139V180.961C150.914 180.739 151.801 180.61 152.632 180.61C154.442 180.61 155.365 181.441 155.365 183.048V190.879H159.687ZM173.466 190.879V188.81C173.115 188.94 172.69 189.069 172.247 189.069C171.656 189.069 171.397 188.792 171.397 188.201V183.048C171.397 180.13 169.329 178.523 166.004 178.523C164.914 178.523 163.566 178.763 162.347 179.095V182.641H163.178L164.139 180.831C164.785 180.702 165.45 180.61 166.004 180.61C167.98 180.61 168.978 181.478 168.978 183.048V183.75H165.709C162.68 183.75 161.11 185.301 161.11 187.333C161.11 189.531 162.901 191.193 166.133 191.193C167.371 191.193 168.59 190.86 169.569 190.362C170.012 190.879 170.788 191.193 171.637 191.193C172.284 191.193 172.986 191.045 173.466 190.879ZM168.978 188.589C168.11 188.995 167.112 189.254 166.133 189.254C164.416 189.254 163.566 188.533 163.566 187.333C163.566 186.298 164.213 185.652 165.709 185.652H168.978V188.589ZM180.244 190.879V190.029L178.379 189.069V171.929H175.959V190.879H180.244ZM192.785 178.8H187.891V179.668L189.498 180.443L186.783 187.628L183.477 178.8H180.817L185.527 190.399L182.498 197.787H185.028L192.785 178.8ZM202.482 190.916V188.792C201.983 188.977 201.374 189.069 200.801 189.069C199.121 189.069 198.363 188.293 198.363 186.871V180.905H202.482V178.8H198.363V175.18L195.944 175.549V178.8H193.358V180.905H195.944V186.871C195.944 189.568 197.717 191.193 200.801 191.193C201.318 191.193 201.983 191.064 202.482 190.916ZM208.245 174.515C208.245 173.628 207.543 172.945 206.693 172.945C205.844 172.945 205.142 173.628 205.142 174.515C205.142 175.364 205.844 176.066 206.693 176.066C207.543 176.066 208.245 175.364 208.245 174.515ZM209.778 190.879V190.029L207.912 189.069V178.8H205.474V190.879H209.778ZM220.841 190.62V188.533C219.788 188.866 218.625 189.069 217.59 189.069C215.134 189.069 213.73 187.702 213.73 184.858C213.73 181.995 215.134 180.61 217.59 180.61C218.015 180.61 218.514 180.665 219.031 180.776L220.01 182.641H220.841V179.058C219.881 178.763 218.569 178.523 217.59 178.523C213.546 178.523 211.2 180.868 211.2 184.858C211.2 188.81 213.546 191.193 217.59 191.193C218.569 191.193 219.881 190.934 220.841 190.62ZM232.459 187.333C232.459 184.913 230.741 183.639 227.749 183.639C226.197 183.639 225.569 183.029 225.569 182.124C225.569 181.385 226.16 180.61 228.229 180.61C228.968 180.61 229.744 180.721 230.482 180.85L231.387 182.641H232.237V179.169C230.981 178.781 229.651 178.523 228.229 178.523C224.701 178.523 223.094 180.351 223.094 182.272C223.094 184.673 224.831 185.966 227.749 185.966C229.356 185.966 229.965 186.557 229.965 187.499C229.965 188.293 229.356 189.069 227.232 189.069C225.957 189.069 224.572 188.847 223.15 188.404V190.528C224.517 190.934 225.809 191.193 227.232 191.193C230.815 191.193 232.459 189.327 232.459 187.333ZM253.607 190.879V186.926H252.775L251.815 188.755H245.979V175.364H243.448V190.879H253.607ZM266.351 190.879V186.926H265.52L264.559 188.755H258.723V175.364H256.192V190.879H266.351ZM280 190.491V188.275C278.652 188.681 277.156 188.977 275.844 188.977C272.28 188.977 270.377 186.982 270.377 183.122C270.377 179.28 272.28 177.285 275.844 177.285C276.546 177.285 277.34 177.377 278.116 177.507L279.15 179.317H280V175.752C278.763 175.364 277.082 175.05 275.844 175.05C270.617 175.05 267.718 178.209 267.718 183.122C267.718 188.035 270.617 191.193 275.844 191.193C277.082 191.193 278.763 190.879 280 190.491Z" fill="url(#paint0_linear_160_15)"/>
<path d="M176.716 122.301C176.822 122.24 176.94 122.205 177.061 122.199L176.41 113.977L160.959 122.876L168.338 127.124L176.716 122.301ZM124.218 144.03L123.434 153.928L149.781 138.759L141.426 134.124L124.218 144.03ZM124.148 113.978L123.498 122.2C123.617 122.21 123.737 122.239 123.845 122.302L132.634 127.363L177.125 153.929L176.34 144.031L124.148 113.978ZM185.914 127.126L193.293 122.878L177.84 113.978L177.19 122.2C177.312 122.206 177.432 122.241 177.538 122.302L185.914 127.126Z" fill="url(#paint1_linear_160_15)"/>
<path d="M150.904 117.318L159.298 121.932L176.482 112.036C176.553 111.948 176.641 111.876 176.74 111.823C176.84 111.769 176.949 111.737 177.061 111.727C177.196 111.717 177.332 111.74 177.456 111.795C177.58 111.85 177.689 111.934 177.773 112.04L195.354 122.162C195.368 122.17 195.379 122.182 195.391 122.189C195.417 122.207 195.441 122.222 195.465 122.242C195.506 122.276 195.543 122.313 195.577 122.354C195.597 122.377 195.613 122.403 195.63 122.428C195.639 122.442 195.65 122.451 195.668 122.489C195.682 122.516 195.693 122.544 195.704 122.571C195.725 122.618 195.74 122.668 195.748 122.719C195.755 122.744 195.76 122.77 195.762 122.797C195.765 122.824 195.764 122.85 195.764 122.877C195.764 122.902 195.765 122.928 195.762 122.955C195.76 122.981 195.755 123.007 195.748 123.033C195.744 123.059 195.738 123.085 195.73 123.111C195.723 123.134 195.713 123.158 195.704 123.181C195.693 123.208 195.682 123.236 195.657 123.286C195.652 123.296 195.643 123.302 195.637 123.309C195.61 123.354 195.578 123.396 195.541 123.434C195.529 123.448 195.52 123.459 195.506 123.471C195.459 123.516 195.406 123.556 195.348 123.59L177.537 133.848C177.412 133.92 177.271 133.957 177.127 133.957C176.983 133.957 176.841 133.92 176.716 133.848L123.458 102.213L87.5723 122.872L123.43 142.585L139.748 133.19L132.231 129.02L123.843 133.848C123.718 133.92 123.576 133.959 123.432 133.959C123.288 133.959 123.146 133.92 123.022 133.848C122.207 133.397 106.511 124.741 105.736 124.28C105.222 123.975 104.622 123.708 104.715 123.009C104.826 122.167 105.924 121.747 106.576 121.372C108.59 120.212 110.605 119.053 112.619 117.892L122.789 112.037C122.859 111.949 122.947 111.877 123.046 111.824C123.146 111.77 123.255 111.738 123.368 111.728C123.503 111.718 123.639 111.742 123.763 111.796C123.887 111.851 123.996 111.935 124.081 112.041L177.134 142.587L212.998 122.878L177.125 102.22L150.904 117.318ZM213.001 122.878L177.91 144.02L177.126 153.928L213.001 133.274V122.878Z" fill="url(#paint2_linear_160_15)"/>
<path d="M107.265 122.878L114.647 127.126L123.024 122.302C123.13 122.242 123.248 122.207 123.37 122.2L122.719 113.978L107.265 122.878ZM86.9993 122.878V133.274L123.154 153.928L122.229 144.02L86.9993 122.878Z" fill="url(#paint3_linear_160_15)"/>
<defs>
<linearGradient id="paint0_linear_160_15" x1="280.001" y1="184.856" x2="19.9993" y2="184.856" gradientUnits="userSpaceOnUse">
<stop stop-color="#FF9600"/>
<stop offset="1" stop-color="#F36AFF"/>
</linearGradient>
<linearGradient id="paint1_linear_160_15" x1="193.294" y1="133.95" x2="123.433" y2="133.95" gradientUnits="userSpaceOnUse">
<stop stop-color="#FF9600"/>
<stop offset="1" stop-color="#F36AFF"/>
</linearGradient>
<linearGradient id="paint2_linear_160_15" x1="213.001" y1="128.067" x2="87.5719" y2="128.067" gradientUnits="userSpaceOnUse">
<stop stop-color="#FF9600"/>
<stop offset="1" stop-color="#F36AFF"/>
</linearGradient>
<linearGradient id="paint3_linear_160_15" x1="123.37" y1="133.95" x2="86.9992" y2="133.95" gradientUnits="userSpaceOnUse">
<stop stop-color="#FF9600"/>
<stop offset="1" stop-color="#F36AFF"/>
</linearGradient>
</defs>
</svg>
