<svg width="37" height="60" viewBox="0 0 37 60" fill="none" xmlns="http://www.w3.org/2000/svg">
<path d="M17.1668 3.85744C16.8308 5.09477 16.5494 6.33209 16.2828 7.57076C15.7628 10.0468 15.3774 12.5228 15.0507 14.9988C14.4281 19.9508 14.1614 24.9028 14.1534 29.8548C14.1521 34.8068 14.4201 39.7588 15.0401 44.7094C15.3481 47.1868 15.7601 49.6628 16.2734 52.1374C16.5414 53.3761 16.8227 54.6148 17.1601 55.8521C17.4921 57.0908 17.8561 58.3281 18.3228 59.5654C18.7881 58.3281 19.1521 57.0908 19.4841 55.8521C19.8214 54.6148 20.1028 53.3761 20.3708 52.1374C20.8841 49.6628 21.2961 47.1868 21.6041 44.7094C22.2241 39.7588 22.4921 34.8068 22.4907 29.8548C22.4827 24.9028 22.2161 19.9508 21.5921 14.9988C21.2668 12.5228 20.8814 10.0468 20.3614 7.57076C20.0947 6.33209 19.8134 5.09477 19.4774 3.85744C19.1481 2.61877 18.7854 1.38143 18.3228 0.142761C17.8588 1.38143 17.4961 2.61877 17.1668 3.85744ZM30.7254 22.4268C30.2574 24.9028 30.0587 27.3788 30.0507 29.8548C30.0507 32.3308 30.2494 34.8068 30.7161 37.2828C31.2108 39.7588 31.8627 42.2348 33.1774 44.7094C34.4934 42.2348 35.1454 39.7588 35.6388 37.2828C36.1054 34.8068 36.3054 32.3308 36.3041 29.8548C36.2974 27.3788 36.0974 24.9028 35.6308 22.4268C35.1348 19.9508 34.4854 17.4748 33.1774 14.9988C31.8694 17.4748 31.2214 19.9508 30.7254 22.4268ZM1.01341 22.4268C0.546747 24.9028 0.345428 27.3788 0.340095 29.8548C0.338761 32.3308 0.538752 34.8068 1.00542 37.2828C1.49875 39.7588 2.15076 42.2348 3.46676 44.7094C4.78143 42.2348 5.43475 39.7588 5.92809 37.2828C6.39475 34.8068 6.59343 32.3308 6.59343 29.8548C6.58543 27.3788 6.38675 24.9028 5.91875 22.4268C5.42275 19.9508 4.77343 17.4748 3.46676 14.9988C2.15876 17.4748 1.50941 19.9508 1.01341 22.4268Z" fill="url(#paint0_linear_116_2)"/>
<defs>
<linearGradient id="paint0_linear_116_2" x1="18.3221" y1="0.143055" x2="18.3221" y2="59.566" gradientUnits="userSpaceOnUse">
<stop stop-color="#FF9600"/>
<stop offset="1" stop-color="#F36AFF"/>
</linearGradient>
</defs>
</svg>
