<svg width="267" height="126" viewBox="0 0 267 126" fill="none" xmlns="http://www.w3.org/2000/svg">
<path d="M260.501 118.888C259.853 118.888 259.415 119 259.189 119.223C258.962 119.445 258.847 119.86 258.847 120.465V123.979C258.847 124.588 258.962 125.003 259.189 125.224C259.415 125.445 259.853 125.555 260.501 125.555H265.099C265.746 125.555 266.185 125.445 266.411 125.224C266.638 125.003 266.751 124.588 266.751 123.979V121.683H262.707V122.819H265.245V124.3H260.399V120.081H265.245V120.825L266.751 120.553V120.403C266.751 119.831 266.637 119.435 266.405 119.216C266.174 118.997 265.738 118.888 265.099 118.888H260.501ZM254.193 118.888V122.388C254.193 122.473 254.197 122.592 254.205 122.748C254.213 122.904 254.23 123.169 254.255 123.543C254.154 123.421 254.043 123.303 253.922 123.187C253.799 123.071 253.659 122.949 253.498 122.819L248.805 118.888H247.745V125.555H249.139V121.955C249.139 121.82 249.135 121.66 249.125 121.477C249.113 121.295 249.098 121.1 249.075 120.895C249.151 120.983 249.234 121.068 249.322 121.152C249.411 121.236 249.514 121.331 249.631 121.437L254.526 125.555H255.586V118.888H254.193ZM242.799 125.555H244.351V118.888H242.799V125.555ZM231.855 118.888V125.555H235.747C236.419 125.555 236.971 125.515 237.403 125.433C237.834 125.351 238.194 125.219 238.485 125.039C238.951 124.752 239.314 124.36 239.57 123.863C239.826 123.364 239.955 122.804 239.955 122.181C239.955 121.129 239.626 120.317 238.967 119.747C238.31 119.173 237.369 118.888 236.145 118.888H231.855ZM233.406 120.081H236.157C236.881 120.081 237.427 120.256 237.797 120.607C238.167 120.959 238.353 121.473 238.353 122.156C238.353 122.921 238.13 123.469 237.683 123.803C237.238 124.135 236.481 124.3 235.413 124.3H233.406V120.081ZM223.03 118.888V125.555H229.585V124.3H224.582V118.888H223.03ZM218.071 125.555H219.623V118.888H218.071V125.555ZM213.113 118.888V124.3H208.691V118.888H207.139V123.979C207.139 124.588 207.254 125.003 207.483 125.224C207.711 125.445 208.149 125.555 208.791 125.555H213.006C213.653 125.555 214.091 125.445 214.318 125.224C214.545 125.003 214.659 124.588 214.659 123.979V118.888H213.113ZM196.882 118.888V125.555H202.181C202.841 125.555 203.333 125.448 203.657 125.233C203.981 125.02 204.143 124.691 204.143 124.249V123.399C204.143 123.041 204.039 122.751 203.831 122.528C203.622 122.304 203.327 122.168 202.945 122.117C203.315 122.072 203.598 121.953 203.797 121.761C203.993 121.571 204.093 121.315 204.093 120.995V120.181C204.093 119.732 203.975 119.403 203.739 119.196C203.503 118.991 203.123 118.888 202.598 118.888H196.882ZM198.409 119.973H201.949C202.217 119.973 202.403 120.011 202.506 120.083C202.61 120.156 202.661 120.28 202.661 120.453V121.083C202.661 121.26 202.61 121.384 202.506 121.455C202.403 121.527 202.217 121.563 201.949 121.563H198.409V119.973ZM198.409 122.661H201.949C202.242 122.661 202.441 122.703 202.543 122.789C202.647 122.876 202.698 123.031 202.698 123.253V123.757C202.698 123.981 202.647 124.137 202.543 124.224C202.441 124.313 202.242 124.357 201.949 124.357H198.409V122.661ZM182.127 118.888V125.555H189.015V124.3H183.679V122.648H186.758V121.512H183.679V120.023H188.953V118.888H182.127ZM173.297 118.888C172.647 118.888 172.211 119 171.985 119.223C171.757 119.445 171.643 119.86 171.643 120.465V123.979C171.643 124.588 171.757 125.003 171.985 125.224C172.211 125.445 172.647 125.555 173.297 125.555H177.277C177.919 125.555 178.357 125.445 178.586 125.224C178.815 125.003 178.929 124.588 178.929 123.979V123.191L177.377 122.868V124.3H173.195V120.081H177.377V121.341L178.929 121.096V120.465C178.929 119.86 178.815 119.445 178.586 119.223C178.357 119 177.919 118.888 177.277 118.888H173.297ZM164.547 118.888L160.774 125.555H162.319L163.095 124.099H167.322L168.123 125.555H169.863L166.042 118.888H164.547ZM165.241 120.181L166.679 122.893H163.758L165.241 120.181ZM153.154 118.888V125.555H154.681V122.957H158.857C159.387 122.957 159.77 122.855 160.007 122.651C160.245 122.447 160.363 122.12 160.363 121.669V120.181C160.363 119.727 160.245 119.399 160.007 119.195C159.77 118.991 159.387 118.888 158.857 118.888H153.154ZM154.681 120.043H158.169C158.438 120.043 158.622 120.081 158.721 120.159C158.819 120.237 158.87 120.372 158.87 120.565V121.279C158.87 121.476 158.819 121.615 158.721 121.692C158.622 121.769 158.438 121.809 158.169 121.809H154.681V120.043ZM144.411 118.888C143.763 118.888 143.326 119 143.098 119.223C142.871 119.445 142.758 119.86 142.758 120.465V121.203C142.758 121.809 142.871 122.223 143.098 122.445C143.326 122.669 143.763 122.78 144.411 122.78H148.567V124.3H143.855V123.512L142.487 123.796V123.979C142.487 124.584 142.601 124.999 142.83 125.221C143.059 125.445 143.501 125.555 144.151 125.555H148.271C148.923 125.555 149.363 125.445 149.593 125.221C149.822 124.999 149.937 124.584 149.937 123.979V123.064C149.937 122.459 149.822 122.044 149.593 121.821C149.363 121.599 148.923 121.487 148.271 121.487H144.114V120.055H148.481V120.812L149.847 120.491V120.352C149.847 119.805 149.729 119.424 149.491 119.209C149.254 118.995 148.822 118.888 148.195 118.888H144.411ZM129.057 118.888C128.455 118.888 128.051 118.98 127.845 119.165C127.639 119.351 127.537 119.693 127.537 120.193V120.611L128.855 120.856V120.023H132.147C132.399 120.023 132.567 120.063 132.653 120.143C132.735 120.224 132.778 120.387 132.778 120.635V120.969C132.778 121.213 132.735 121.376 132.653 121.455C132.567 121.535 132.399 121.575 132.147 121.575H130.142V122.661H132.394C132.646 122.661 132.817 122.701 132.903 122.783C132.993 122.865 133.037 123.028 133.037 123.272V123.757C133.037 123.997 132.994 124.157 132.907 124.237C132.821 124.317 132.65 124.357 132.394 124.357H128.798V123.424L127.429 123.707V124.249C127.429 124.751 127.533 125.093 127.742 125.279C127.949 125.463 128.355 125.555 128.955 125.555H132.829C133.434 125.555 133.854 125.453 134.091 125.249C134.326 125.045 134.443 124.671 134.443 124.124V123.424C134.443 123.008 134.319 122.689 134.071 122.471C133.823 122.253 133.431 122.117 132.898 122.067C133.378 121.991 133.711 121.859 133.901 121.669C134.091 121.48 134.186 121.191 134.186 120.8V120.193C134.186 119.693 134.082 119.351 133.877 119.165C133.67 118.98 133.266 118.888 132.665 118.888H129.057ZM112.454 118.888V125.555H117.753C118.413 125.555 118.905 125.448 119.229 125.233C119.551 125.02 119.714 124.691 119.714 124.249V123.399C119.714 123.041 119.61 122.751 119.402 122.528C119.194 122.304 118.898 122.168 118.515 122.117C118.886 122.072 119.17 121.953 119.367 121.761C119.565 121.571 119.663 121.315 119.663 120.995V120.181C119.663 119.732 119.546 119.403 119.31 119.196C119.075 118.991 118.695 118.888 118.167 118.888H112.454ZM113.979 119.973H117.519C117.787 119.973 117.974 120.011 118.077 120.083C118.179 120.156 118.231 120.28 118.231 120.453V121.083C118.231 121.26 118.179 121.384 118.077 121.455C117.974 121.527 117.787 121.563 117.519 121.563H113.979V119.973ZM113.979 122.661H117.519C117.813 122.661 118.011 122.703 118.115 122.789C118.218 122.876 118.27 123.031 118.27 123.253V123.757C118.27 123.981 118.218 124.137 118.115 124.224C118.011 124.313 117.813 124.357 117.519 124.357H113.979V122.661ZM102.701 118.888V125.555H109.589V124.3H104.253V122.648H107.331V121.512H104.253V120.023H109.527V118.888H102.701ZM99.1127 118.888L97.4967 123.36L95.6927 118.888H94.6074L92.8354 123.36L91.1447 118.888H89.5421L92.1087 125.555H93.1821L95.0434 120.945L96.8794 125.555H97.9247L100.499 118.888H99.1127ZM82.1101 118.888L79.8154 121.449L77.5247 118.888H75.4554L78.9181 122.572V125.555H80.4834V122.533L83.9341 118.888H82.1101ZM67.4767 118.888V120.081H70.5354V125.555H72.0874V120.081H75.1594V118.888H67.4767ZM64.0247 125.555H65.5767V118.888H64.0247V125.555ZM53.6674 118.888V125.555H55.1927V123.039H56.6634L59.3514 125.555H61.5767L58.4994 123.039H59.3687C59.8994 123.039 60.2834 122.936 60.5207 122.729C60.7594 122.524 60.8781 122.195 60.8781 121.745V120.181C60.8781 119.727 60.7594 119.399 60.5207 119.195C60.2834 118.991 59.8994 118.888 59.3687 118.888H53.6674ZM55.1927 120.043H58.6821C58.9514 120.043 59.1354 120.081 59.2341 120.159C59.3327 120.237 59.3821 120.372 59.3821 120.565V121.367C59.3821 121.565 59.3327 121.703 59.2341 121.78C59.1354 121.859 58.9514 121.896 58.6821 121.896H55.1927V120.043ZM43.8394 118.888C43.1914 118.888 42.7541 119 42.5274 119.223C42.2994 119.445 42.1861 119.86 42.1861 120.465V123.979C42.1861 124.588 42.2994 125.003 42.5274 125.224C42.7541 125.445 43.1914 125.555 43.8394 125.555H48.7474C49.3954 125.555 49.8314 125.445 50.0581 125.224C50.2861 125.003 50.3994 124.588 50.3994 123.979V120.465C50.3994 119.86 50.2861 119.445 50.0581 119.223C49.8314 119 49.3954 118.888 48.7474 118.888H43.8394ZM43.7381 120.081H48.8541V124.3H43.7381V120.081ZM37.3541 118.888V121.473H32.5101V118.888H30.9581V125.555H32.5101V122.687H37.3541V125.555H38.9194V118.888H37.3541ZM21.3767 118.888V120.081H24.4354V125.555H25.9861V120.081H29.0581V118.888H21.3767ZM17.9247 118.888V124.3H13.5034V118.888H11.9514V123.979C11.9514 124.588 12.0647 125.003 12.2941 125.224C12.5234 125.445 12.9607 125.555 13.6034 125.555H17.8181C18.4647 125.555 18.9034 125.445 19.1301 125.224C19.3567 125.003 19.4701 124.588 19.4701 123.979V118.888H17.9247ZM4.77274 118.888L1.00073 125.555H2.54607L3.32073 124.099H7.54873L8.34873 125.555H10.0901L6.2674 118.888H4.77274ZM5.46606 120.181L6.9034 122.893H3.9834L5.46606 120.181Z" fill="url(#paint0_linear_111_90)"/>
<path d="M0 107.696V85.7638H4.12933L14.4613 99.0225L24.5667 85.7638H28.6547V107.696H23.9227V94.1465C23.9227 93.8838 23.94 93.5518 23.976 93.1505C24.0093 92.7505 24.0547 92.2998 24.1107 91.8025C23.8333 92.3691 23.5907 92.8358 23.384 93.2025C23.176 93.5691 22.9893 93.8705 22.824 94.1051L14.5867 105.061H13.5707L5.312 94.0638C5.00667 93.6491 4.748 93.2585 4.53333 92.8918C4.31867 92.5251 4.14267 92.1691 4.004 91.8225C4.04667 92.2798 4.07733 92.6945 4.09867 93.0678C4.11867 93.4411 4.12933 93.8011 4.12933 94.1465V107.696H0Z" fill="white"/>
<path d="M39.3815 107.696V85.7638H61.8321V89.4985H44.4855V94.3958H54.6108V98.1305H44.4855V103.566H62.0388V107.696H39.3815Z" fill="white"/>
<path d="M71.4597 107.696V85.7638H76.5637V103.566H93.0184V107.696H71.4597Z" fill="white"/>
<path d="M100.487 85.7643H105.591V107.696H100.487V85.7643Z" fill="white"/>
<path d="M121.443 103.567H138.271V89.6856H121.443V103.567ZM116.339 90.951C116.339 88.9603 116.711 87.5976 117.459 86.8643C118.206 86.131 119.645 85.7643 121.775 85.7643H137.918C140.049 85.7643 141.487 86.131 142.234 86.8643C142.981 87.5976 143.354 88.9603 143.354 90.951V102.508C143.354 104.515 142.981 105.88 142.234 106.607C141.487 107.332 140.049 107.696 137.918 107.696H121.775C119.645 107.696 118.206 107.332 117.459 106.607C116.711 105.88 116.339 104.515 116.339 102.508V90.951Z" fill="white"/>
<path d="M170.598 89.5616H159.124V95.6616H170.598C171.482 95.6616 172.088 95.5336 172.413 95.2776C172.738 95.0216 172.901 94.5683 172.901 93.919V91.283C172.901 90.647 172.738 90.2016 172.413 89.9456C172.088 89.6896 171.482 89.5616 170.598 89.5616ZM154.102 107.696V85.7643H172.86C174.602 85.7643 175.865 86.1003 176.646 86.771C177.428 87.4416 177.818 88.5243 177.818 90.0176V95.163C177.818 96.6443 177.428 97.723 176.646 98.4003C175.865 99.0776 174.602 99.4163 172.86 99.4163H169.997L180.122 107.696H172.797L163.957 99.4163H159.124V107.696H154.102Z" fill="white"/>
<path d="M192.28 98.9393H201.887L197.156 90.018L192.28 98.9393ZM182.465 107.695L194.875 85.7646H199.791L212.364 107.695H206.639L204.004 102.902H190.101L187.549 107.695H182.465Z" fill="white"/>
<path d="M226.744 89.686V107.695H221.64V89.686H211.576V85.7646H236.848V89.686H226.744Z" fill="white"/>
<path d="M243.094 107.696V85.7638H265.545V89.4985H248.198V94.3958H258.324V98.1305H248.198V103.566H265.752V107.696H243.094Z" fill="white"/>
<path d="M132.357 3.61087C132.03 4.81366 131.757 6.01644 131.498 7.22052C130.992 9.6274 130.618 12.0343 130.3 14.4412C129.695 19.2549 129.435 24.0687 129.428 28.8824C129.426 33.6962 129.687 38.5099 130.29 43.3224C130.589 45.7306 130.99 48.1375 131.489 50.543C131.749 51.7471 132.023 52.9512 132.35 54.154C132.673 55.3581 133.027 56.5609 133.481 57.7637C133.933 56.5609 134.287 55.3581 134.61 54.154C134.937 52.9512 135.211 51.7471 135.471 50.543C135.97 48.1375 136.371 45.7306 136.67 43.3224C137.273 38.5099 137.534 33.6962 137.532 28.8824C137.525 24.0687 137.265 19.2549 136.659 14.4412C136.342 12.0343 135.968 9.6274 135.462 7.22052C135.203 6.01644 134.93 4.81366 134.603 3.61087C134.283 2.40678 133.93 1.20398 133.481 -0.000106812C133.03 1.20398 132.677 2.40678 132.357 3.61087ZM145.537 21.6618C145.082 24.0687 144.889 26.4756 144.881 28.8824C144.881 31.2893 145.074 33.6962 145.528 36.1031C146.009 38.51 146.643 40.9168 147.921 43.3224C149.2 40.9168 149.834 38.51 150.313 36.1031C150.767 33.6962 150.961 31.2893 150.96 28.8824C150.954 26.4756 150.759 24.0687 150.305 21.6618C149.823 19.2549 149.192 16.848 147.921 14.4412C146.649 16.848 146.019 19.2549 145.537 21.6618ZM116.655 21.6618C116.201 24.0687 116.005 26.4756 116 28.8824C115.999 31.2893 116.193 33.6962 116.647 36.1031C117.126 38.51 117.76 40.9168 119.039 43.3224C120.317 40.9168 120.952 38.51 121.432 36.1031C121.886 33.6962 122.079 31.2893 122.079 28.8824C122.071 26.4756 121.878 24.0687 121.423 21.6618C120.941 19.2549 120.31 16.848 119.039 14.4412C117.768 16.848 117.137 19.2549 116.655 21.6618Z" fill="url(#paint1_linear_111_90)"/>
<defs>
<linearGradient id="paint0_linear_111_90" x1="266.752" y1="122.222" x2="1.00002" y2="122.222" gradientUnits="userSpaceOnUse">
<stop stop-color="#FF9600"/>
<stop offset="1" stop-color="#F36AFF"/>
</linearGradient>
<linearGradient id="paint1_linear_111_90" x1="133.48" y1="0.000175143" x2="133.48" y2="57.7642" gradientUnits="userSpaceOnUse">
<stop stop-color="#FF9600"/>
<stop offset="1" stop-color="#F36AFF"/>
</linearGradient>
</defs>
</svg>
