<svg width="300" height="300" viewBox="0 0 300 300" fill="none" xmlns="http://www.w3.org/2000/svg">
<g clip-path="url(#clip0_160_3)">
<path d="M196.647 139.925C196.831 139.819 197.037 139.757 197.249 139.746L196.113 125.392L169.135 140.929L182.019 148.346L196.647 139.925ZM104.984 177.864L103.615 195.146L149.618 168.661L135.03 160.568L104.984 177.864ZM104.862 125.394L103.727 139.748C103.935 139.766 104.144 139.816 104.333 139.926L119.678 148.763L197.361 195.148L195.991 177.866L104.862 125.394ZM212.707 148.349L225.591 140.932L198.61 125.394L197.475 139.748C197.688 139.76 197.896 139.821 198.082 139.926L212.707 148.349Z" fill="url(#paint0_linear_160_3)"/>
<path d="M151.578 131.226L166.235 139.28L196.238 122.003C196.362 121.85 196.515 121.723 196.689 121.63C196.862 121.537 197.053 121.481 197.249 121.464C197.486 121.446 197.722 121.486 197.939 121.582C198.156 121.677 198.346 121.824 198.493 122.01L229.19 139.682C229.214 139.696 229.233 139.717 229.254 139.729C229.3 139.76 229.341 139.787 229.383 139.822C229.454 139.881 229.519 139.947 229.579 140.017C229.614 140.057 229.642 140.103 229.671 140.146C229.687 140.171 229.706 140.186 229.738 140.253C229.762 140.3 229.781 140.349 229.801 140.396C229.837 140.479 229.862 140.565 229.877 140.654C229.889 140.699 229.897 140.745 229.902 140.791C229.907 140.838 229.905 140.883 229.905 140.93C229.905 140.974 229.907 141.019 229.902 141.066C229.897 141.112 229.889 141.158 229.877 141.203C229.87 141.249 229.859 141.294 229.846 141.339C229.834 141.379 229.816 141.421 229.801 141.461C229.781 141.508 229.762 141.557 229.719 141.644C229.71 141.662 229.694 141.672 229.684 141.685C229.636 141.763 229.58 141.836 229.516 141.903C229.495 141.927 229.479 141.946 229.455 141.967C229.372 142.048 229.279 142.117 229.179 142.175L198.08 160.086C197.862 160.211 197.615 160.277 197.364 160.277C197.112 160.277 196.865 160.211 196.647 160.086L103.657 104.852L41.0005 140.922L103.608 175.341L132.1 158.937L118.975 151.656L104.329 160.086C104.111 160.213 103.864 160.28 103.612 160.28C103.36 160.28 103.113 160.213 102.896 160.086C101.473 159.298 74.0686 144.185 72.7154 143.38C71.8179 142.847 70.7703 142.381 70.9327 141.161C71.1265 139.691 73.0437 138.957 74.1821 138.302C77.6986 136.277 81.2151 134.255 84.7316 132.228L102.489 122.005C102.612 121.851 102.765 121.724 102.939 121.632C103.113 121.539 103.303 121.482 103.5 121.465C103.736 121.448 103.973 121.488 104.19 121.584C104.407 121.679 104.598 121.826 104.745 122.012L197.377 175.345L259.995 140.932L197.361 104.864L151.578 131.226ZM260 140.932L198.732 177.847L197.363 195.146L260 159.084V140.932Z" fill="url(#paint1_linear_160_3)"/>
<path d="M75.3851 140.932L88.2725 148.349L102.899 139.926C103.084 139.822 103.291 139.761 103.503 139.748L102.367 125.394L75.3851 140.932ZM40 140.932V159.084L103.126 195.146L101.511 177.847L40 140.932Z" fill="url(#paint2_linear_160_3)"/>
</g>
<defs>
<linearGradient id="paint0_linear_160_3" x1="225.591" y1="160.265" x2="103.615" y2="160.265" gradientUnits="userSpaceOnUse">
<stop stop-color="#FF9600"/>
<stop offset="1" stop-color="#F36AFF"/>
</linearGradient>
<linearGradient id="paint1_linear_160_3" x1="260.001" y1="149.993" x2="40.9999" y2="149.993" gradientUnits="userSpaceOnUse">
<stop stop-color="#FF9600"/>
<stop offset="1" stop-color="#F36AFF"/>
</linearGradient>
<linearGradient id="paint2_linear_160_3" x1="103.503" y1="160.265" x2="39.9998" y2="160.265" gradientUnits="userSpaceOnUse">
<stop stop-color="#FF9600"/>
<stop offset="1" stop-color="#F36AFF"/>
</linearGradient>
<clipPath id="clip0_160_3">
<rect width="300" height="300" fill="white"/>
</clipPath>
</defs>
</svg>
