<svg width="74" height="31" viewBox="0 0 74 31" fill="none" xmlns="http://www.w3.org/2000/svg">
<path d="M52.2158 11.6909C52.2771 11.6555 52.3459 11.6352 52.4166 11.6315L52.0377 6.8468L43.045 12.0255L47.3397 14.4979L52.2158 11.6909ZM21.6614 24.3374L21.2051 30.0981L36.5393 21.2696L31.6766 18.572L21.6614 24.3374ZM21.6206 6.84738L21.2423 11.6321C21.3116 11.6379 21.3814 11.6548 21.4443 11.6915L26.5596 14.637L52.4538 30.0987L51.9969 24.338L21.6206 6.84738ZM57.5691 14.4991L61.8638 12.0267L52.8699 6.84738L52.4916 11.6321C52.5628 11.6361 52.6321 11.6564 52.6942 11.6915L57.5691 14.4991Z" fill="url(#paint0_linear_160_11)"/>
<path d="M37.1928 8.79128L42.0782 11.4761L52.0795 5.71709C52.1206 5.66589 52.1716 5.62354 52.2295 5.59263C52.2875 5.56172 52.3511 5.54288 52.4165 5.53725C52.4952 5.53131 52.5741 5.54481 52.6464 5.57658C52.7187 5.60835 52.782 5.65741 52.8309 5.71942L63.0632 11.61C63.0713 11.6146 63.0777 11.6216 63.0847 11.6257C63.0998 11.6361 63.1138 11.6449 63.1278 11.6565C63.1513 11.6764 63.1731 11.6982 63.193 11.7217C63.2046 11.7351 63.2139 11.7502 63.2238 11.7648C63.2291 11.7729 63.2355 11.7782 63.2459 11.8003C63.2541 11.816 63.2605 11.8323 63.2669 11.848C63.2789 11.8756 63.2875 11.9045 63.2925 11.9341C63.2963 11.949 63.2991 11.9642 63.3006 11.9795C63.3024 11.9952 63.3018 12.0104 63.3018 12.0261C63.3018 12.0406 63.3024 12.0558 63.3006 12.0715C63.2991 12.0868 63.2963 12.102 63.2925 12.1169C63.29 12.1322 63.2865 12.1474 63.282 12.1623C63.278 12.1757 63.2721 12.1896 63.2669 12.203C63.2605 12.2187 63.2541 12.235 63.2395 12.2641C63.2366 12.27 63.2314 12.2734 63.2279 12.2775C63.212 12.3038 63.1933 12.3282 63.172 12.3503C63.165 12.3584 63.1598 12.3648 63.1516 12.3718C63.1239 12.3985 63.093 12.4218 63.0597 12.4411L52.6935 18.4113C52.6208 18.4532 52.5384 18.4752 52.4546 18.4752C52.3707 18.4752 52.2883 18.4532 52.2157 18.4113L21.2189 0L0.333496 12.0232L21.2027 23.4964L30.6999 18.0284L26.3249 15.6014L21.443 18.4113C21.3705 18.4536 21.2881 18.4759 21.2041 18.4759C21.1202 18.4759 21.0377 18.4536 20.9652 18.4113C20.4909 18.1489 11.3562 13.111 10.9051 12.8427C10.606 12.6651 10.2568 12.5097 10.3109 12.1029C10.3755 11.6129 11.0146 11.3684 11.394 11.1502C12.5662 10.475 13.7384 9.80107 14.9105 9.12535L20.8296 5.71768C20.8707 5.66647 20.9217 5.62413 20.9796 5.59322C21.0376 5.5623 21.1012 5.54346 21.1666 5.53784C21.2454 5.53195 21.3244 5.54547 21.3967 5.57723C21.4691 5.60899 21.5325 5.65802 21.5815 5.72L52.459 23.4975L73.3316 12.0267L52.4537 0.00407406L37.1928 8.79128ZM73.3333 12.0267L52.9106 24.3316L52.4543 30.0981L73.3333 18.0773V12.0267Z" fill="url(#paint1_linear_160_11)"/>
<path d="M11.795 12.0267L16.0909 14.4991L20.9664 11.6915C21.0281 11.6567 21.097 11.6364 21.1677 11.6321L20.7889 6.84741L11.795 12.0267ZM0 12.0267V18.0773L21.042 30.0982L20.5037 24.3316L0 12.0267Z" fill="url(#paint2_linear_160_11)"/>
<defs>
<linearGradient id="paint0_linear_160_11" x1="61.8639" y1="18.4712" x2="21.205" y2="18.4712" gradientUnits="userSpaceOnUse">
<stop stop-color="#FF9600"/>
<stop offset="1" stop-color="#F36AFF"/>
</linearGradient>
<linearGradient id="paint1_linear_160_11" x1="73.3335" y1="15.047" x2="0.3333" y2="15.047" gradientUnits="userSpaceOnUse">
<stop stop-color="#FF9600"/>
<stop offset="1" stop-color="#F36AFF"/>
</linearGradient>
<linearGradient id="paint2_linear_160_11" x1="21.1678" y1="18.4712" x2="-5.67766e-05" y2="18.4712" gradientUnits="userSpaceOnUse">
<stop stop-color="#FF9600"/>
<stop offset="1" stop-color="#F36AFF"/>
</linearGradient>
</defs>
</svg>
