<svg width="260" height="96" viewBox="0 0 260 96" fill="none" xmlns="http://www.w3.org/2000/svg">
<path d="M16.235 88.8788L14.7389 73.3641H12.4487L8.12673 79.3668L3.80479 73.3641H0.849613L1.32983 75.3034L0 88.8788H2.53037L3.56468 76.9288L7.48029 82.2296H8.77318L12.6703 76.9288L13.7046 88.8788H16.235ZM24.2509 76.5224C20.797 76.5224 18.5253 78.9051 18.5253 82.8576C18.5253 86.9394 21.0741 89.1928 25.2483 89.1928C26.3749 89.1928 27.8341 88.9342 28.8684 88.5463V86.4592C27.7971 86.8101 26.4303 87.0687 25.2483 87.0687C22.8841 87.0687 21.2588 86.0714 21.0556 83.6518H29.8103C29.8473 83.3932 29.8473 83.1347 29.8473 82.8576C29.8473 78.9051 27.7417 76.5224 24.2509 76.5224ZM27.4462 81.6755H21.0741C21.3142 79.6254 22.5332 78.5172 24.2509 78.5172C25.9132 78.5172 27.1876 79.57 27.4462 81.6755ZM40.3936 88.9157V86.7917C39.8949 86.9764 39.2854 87.0687 38.7128 87.0687C37.032 87.0687 36.2748 86.293 36.2748 84.8708V78.9051H40.3936V76.7995H36.2748V73.1794L33.8552 73.5488V76.7995H31.2694V78.9051H33.8552V84.8708C33.8552 87.5674 35.6283 89.1928 38.7128 89.1928C39.2299 89.1928 39.8949 89.0635 40.3936 88.9157ZM50.8475 88.9157V86.7917C50.3488 86.9764 49.7208 87.0687 49.1667 87.0687C47.486 87.0687 46.7287 86.293 46.7287 84.8708V78.9051H50.8475V76.7995H46.7287V73.1794L44.2907 73.5488V76.7995H41.7049V78.9051H44.2907V84.8708C44.2907 87.5674 46.0823 89.1928 49.1667 89.1928C49.6839 89.1928 50.3488 89.0635 50.8475 88.9157ZM58.5494 76.5224C55.0771 76.5224 52.8053 78.9051 52.8053 82.8576C52.8053 86.9394 55.3726 89.1928 59.5283 89.1928C60.6734 89.1928 62.1141 88.9342 63.1484 88.5463V86.4592C62.0956 86.8101 60.7104 87.0687 59.5283 87.0687C57.1826 87.0687 55.5388 86.0714 55.3357 83.6518H64.1088C64.1273 83.3932 64.1273 83.1347 64.1273 82.8576C64.1273 78.9051 62.0402 76.5224 58.5494 76.5224ZM61.7262 81.6755H55.3726C55.5942 79.6254 56.8132 78.5172 58.5494 78.5172C60.1932 78.5172 61.4676 79.57 61.7262 81.6755ZM77.3148 76.7995H72.4387V77.6676L74.0271 78.4433L71.3121 85.6281L68.006 76.7995H65.3463L70.0561 88.3986L67.0271 95.7865H69.5574L77.3148 76.7995ZM89.6526 76.7995H84.7581V77.6676L86.365 78.4433L83.6499 85.6281L80.3438 76.7995H77.6842L82.394 88.3986L79.3649 95.7865H81.8953L89.6526 76.7995ZM103.228 88.8788V86.8102C102.859 86.9394 102.452 87.0687 102.009 87.0687C101.418 87.0687 101.159 86.7917 101.159 86.2006V81.0476C101.159 78.1293 99.0907 76.5224 95.7477 76.5224C94.6764 76.5224 93.3281 76.7626 92.1091 77.095V80.6412H92.9403L93.9007 78.8312C94.5471 78.7019 95.212 78.6095 95.7477 78.6095C97.7424 78.6095 98.7213 79.4776 98.7213 81.0476V81.7494H95.4706C92.4416 81.7494 90.8716 83.3009 90.8716 85.3326C90.8716 87.5305 92.6447 89.1928 95.877 89.1928C97.1329 89.1928 98.3335 88.8603 99.3308 88.3616C99.7556 88.8788 100.531 89.1928 101.399 89.1928C102.046 89.1928 102.729 89.045 103.228 88.8788ZM98.7213 86.5885C97.8717 86.9948 96.8743 87.2534 95.877 87.2534C94.1777 87.2534 93.3281 86.5331 93.3281 85.3326C93.3281 84.2983 93.9746 83.6518 95.4706 83.6518H98.7213V86.5885ZM126.094 88.8788L119.888 73.3641H116.489V75.3034L111.059 88.8788H113.885L115.326 85.0001H121.846L123.286 88.8788H126.094ZM121.014 82.7837H116.138L118.595 76.2639L121.014 82.7837ZM139.687 88.8788V88.0292L137.804 87.0687V81.0476C137.804 78.1847 135.827 76.5224 132.632 76.5224C131.044 76.5224 129.141 76.8364 127.553 77.2982L127.146 77.409L127.719 79.3114V88.8788H130.139V78.9605C130.914 78.7388 131.801 78.6095 132.632 78.6095C134.442 78.6095 135.365 79.4407 135.365 81.0476V88.8788H139.687ZM153.466 88.8788V86.8102C153.115 86.9394 152.69 87.0687 152.247 87.0687C151.656 87.0687 151.397 86.7917 151.397 86.2006V81.0476C151.397 78.1293 149.329 76.5224 146.004 76.5224C144.914 76.5224 143.566 76.7626 142.347 77.095V80.6412H143.178L144.139 78.8312C144.785 78.7019 145.45 78.6095 146.004 78.6095C147.98 78.6095 148.978 79.4776 148.978 81.0476V81.7494H145.709C142.68 81.7494 141.11 83.3009 141.11 85.3326C141.11 87.5305 142.901 89.1928 146.133 89.1928C147.371 89.1928 148.59 88.8603 149.569 88.3616C150.012 88.8788 150.788 89.1928 151.637 89.1928C152.284 89.1928 152.986 89.045 153.466 88.8788ZM148.978 86.5885C148.11 86.9948 147.112 87.2534 146.133 87.2534C144.416 87.2534 143.566 86.5331 143.566 85.3326C143.566 84.2983 144.213 83.6518 145.709 83.6518H148.978V86.5885ZM160.244 88.8788V88.0292L158.379 87.0687V69.9287H155.959V88.8788H160.244ZM172.785 76.7995H167.891V77.6676L169.498 78.4433L166.783 85.6281L163.477 76.7995H160.817L165.527 88.3986L162.498 95.7865H165.028L172.785 76.7995ZM182.482 88.9157V86.7917C181.983 86.9764 181.374 87.0687 180.801 87.0687C179.121 87.0687 178.363 86.293 178.363 84.8708V78.9051H182.482V76.7995H178.363V73.1794L175.944 73.5488V76.7995H173.358V78.9051H175.944V84.8708C175.944 87.5674 177.717 89.1928 180.801 89.1928C181.318 89.1928 181.983 89.0635 182.482 88.9157ZM188.245 72.5145C188.245 71.6279 187.543 70.9446 186.693 70.9446C185.844 70.9446 185.142 71.6279 185.142 72.5145C185.142 73.3641 185.844 74.066 186.693 74.066C187.543 74.066 188.245 73.3641 188.245 72.5145ZM189.778 88.8788V88.0292L187.912 87.0687V76.7995H185.474V88.8788H189.778ZM200.841 88.6202V86.5331C199.788 86.8656 198.625 87.0687 197.59 87.0687C195.134 87.0687 193.73 85.702 193.73 82.8576C193.73 79.9948 195.134 78.6095 197.59 78.6095C198.015 78.6095 198.514 78.6649 199.031 78.7758L200.01 80.6412H200.841V77.0581C199.881 76.7626 198.569 76.5224 197.59 76.5224C193.546 76.5224 191.2 78.8681 191.2 82.8576C191.2 86.8102 193.546 89.1928 197.59 89.1928C198.569 89.1928 199.881 88.9342 200.841 88.6202ZM212.459 85.3326C212.459 82.913 210.741 81.6386 207.749 81.6386C206.197 81.6386 205.569 81.0291 205.569 80.1241C205.569 79.3853 206.16 78.6095 208.229 78.6095C208.968 78.6095 209.744 78.7204 210.482 78.8496L211.387 80.6412H212.237V77.1689C210.981 76.781 209.651 76.5224 208.229 76.5224C204.701 76.5224 203.094 78.351 203.094 80.2718C203.094 82.6729 204.831 83.9658 207.749 83.9658C209.356 83.9658 209.965 84.5568 209.965 85.4988C209.965 86.293 209.356 87.0687 207.232 87.0687C205.957 87.0687 204.572 86.8471 203.15 86.4038V88.5278C204.517 88.9342 205.809 89.1928 207.232 89.1928C210.815 89.1928 212.459 87.3273 212.459 85.3326ZM233.607 88.8788V84.9262H232.775L231.815 86.7547H225.979V73.3641H223.448V88.8788H233.607ZM246.351 88.8788V84.9262H245.52L244.559 86.7547H238.723V73.3641H236.192V88.8788H246.351ZM260 88.4909V86.2745C258.652 86.6809 257.156 86.9764 255.844 86.9764C252.28 86.9764 250.377 84.9816 250.377 81.1214C250.377 77.2797 252.28 75.285 255.844 75.285C256.546 75.285 257.34 75.3773 258.116 75.5066L259.15 77.3166H260V73.752C258.763 73.3641 257.082 73.0501 255.844 73.0501C250.617 73.0501 247.718 76.2085 247.718 81.1214C247.718 86.0344 250.617 89.1928 255.844 89.1928C257.082 89.1928 258.763 88.8788 260 88.4909Z" fill="url(#paint0_linear_160_24)"/>
<path d="M156.716 20.3006C156.822 20.2399 156.94 20.2049 157.061 20.1986L156.41 11.9775L140.959 20.8756L148.338 25.1237L156.716 20.3006ZM104.218 42.0299L103.434 51.928L129.781 36.7588L121.426 32.1238L104.218 42.0299ZM104.148 11.9785L103.498 20.1996C103.617 20.2096 103.737 20.2386 103.845 20.3016L112.634 25.3627L157.125 51.929L156.34 42.0309L104.148 11.9785ZM165.914 25.1257L173.293 20.8776L157.84 11.9785L157.19 20.1996C157.313 20.2065 157.432 20.2414 157.538 20.3016L165.914 25.1257Z" fill="url(#paint1_linear_160_24)"/>
<path d="M130.904 15.3185L139.298 19.9316L156.482 10.0365C156.553 9.9485 156.641 9.87575 156.74 9.82263C156.84 9.76952 156.949 9.73715 157.061 9.72748C157.196 9.71727 157.332 9.74047 157.456 9.79506C157.58 9.84964 157.689 9.93393 157.773 10.0405L175.354 20.1616C175.368 20.1696 175.379 20.1816 175.391 20.1886C175.417 20.2066 175.441 20.2216 175.465 20.2416C175.506 20.2758 175.543 20.3133 175.577 20.3536C175.597 20.3766 175.613 20.4026 175.63 20.4276C175.639 20.4416 175.65 20.4506 175.668 20.4886C175.682 20.5156 175.693 20.5436 175.704 20.5706C175.725 20.618 175.74 20.6677 175.748 20.7186C175.755 20.7442 175.76 20.7703 175.762 20.7966C175.765 20.8236 175.764 20.8496 175.764 20.8766C175.764 20.9016 175.765 20.9276 175.762 20.9546C175.76 20.9809 175.755 21.007 175.748 21.0326C175.744 21.059 175.738 21.085 175.73 21.1106C175.723 21.1336 175.713 21.1576 175.704 21.1806C175.693 21.2076 175.682 21.2356 175.657 21.2856C175.652 21.2956 175.643 21.3016 175.637 21.3086C175.61 21.3537 175.578 21.3956 175.541 21.4336C175.529 21.4476 175.52 21.4586 175.506 21.4706C175.459 21.5165 175.406 21.5565 175.348 21.5896L157.537 31.8477C157.412 31.9196 157.271 31.9574 157.127 31.9574C156.983 31.9574 156.841 31.9196 156.716 31.8477L103.458 0.213379L67.5723 20.8716L103.43 40.5848L119.748 31.1897L112.231 27.0197L103.843 31.8477C103.718 31.9204 103.576 31.9587 103.432 31.9587C103.288 31.9587 103.146 31.9204 103.022 31.8477C102.207 31.3967 86.5115 22.7406 85.7365 22.2796C85.2225 21.9746 84.6224 21.7076 84.7155 21.0086C84.8265 20.1666 85.9245 19.7466 86.5765 19.3716C88.5905 18.2116 90.6045 17.0536 92.6185 15.8925L102.789 10.0375C102.859 9.9495 102.947 9.87675 103.046 9.82364C103.146 9.77052 103.255 9.73815 103.368 9.72848C103.503 9.71836 103.639 9.74161 103.763 9.79618C103.887 9.85075 103.996 9.93498 104.081 10.0415L157.134 40.5868L192.998 20.8776L157.125 0.220379L130.904 15.3185ZM193.001 20.8776L157.91 42.0198L157.126 51.9279L193.001 31.2737V20.8776Z" fill="url(#paint2_linear_160_24)"/>
<path d="M87.2655 20.8776L94.6466 25.1257L103.024 20.3016C103.13 20.2419 103.248 20.207 103.37 20.1996L102.719 11.9785L87.2655 20.8776ZM66.9993 20.8776V31.2737L103.154 51.928L102.229 42.0198L66.9993 20.8776Z" fill="url(#paint3_linear_160_24)"/>
<defs>
<linearGradient id="paint0_linear_160_24" x1="260.001" y1="82.8559" x2="-0.000697378" y2="82.8559" gradientUnits="userSpaceOnUse">
<stop stop-color="#FF9600"/>
<stop offset="1" stop-color="#F36AFF"/>
</linearGradient>
<linearGradient id="paint1_linear_160_24" x1="173.294" y1="31.9506" x2="103.434" y2="31.9506" gradientUnits="userSpaceOnUse">
<stop stop-color="#FF9600"/>
<stop offset="1" stop-color="#F36AFF"/>
</linearGradient>
<linearGradient id="paint2_linear_160_24" x1="193.001" y1="26.0672" x2="67.5719" y2="26.0672" gradientUnits="userSpaceOnUse">
<stop stop-color="#FF9600"/>
<stop offset="1" stop-color="#F36AFF"/>
</linearGradient>
<linearGradient id="paint3_linear_160_24" x1="103.37" y1="31.9505" x2="66.9992" y2="31.9505" gradientUnits="userSpaceOnUse">
<stop stop-color="#FF9600"/>
<stop offset="1" stop-color="#F36AFF"/>
</linearGradient>
</defs>
</svg>
