<svg width="50" height="50" viewBox="0 0 50 50" fill="none" xmlns="http://www.w3.org/2000/svg">
<path d="M30.7292 15.5417L25 8.18758L29.1042 7.37508L34.8125 14.7292L30.7292 15.5417ZM45.0417 12.7084L43.4167 4.54175L35.2292 6.16675L40.9375 13.5417L45.0417 12.7084ZM39.5834 25.0001C41.8334 25.0001 43.9375 25.5209 45.8334 26.4167V20.8334H4.1667V41.6667C4.1667 42.7718 4.60569 43.8316 5.38709 44.613C6.16849 45.3944 7.2283 45.8334 8.33337 45.8334H26.4167C25.3597 43.6116 24.8825 41.1583 25.0295 38.7022C25.1765 36.2462 25.943 33.8673 27.2575 31.7875C28.572 29.7076 30.3917 27.9944 32.5469 26.8075C34.7022 25.6207 37.1229 24.9989 39.5834 25.0001ZM24.6042 16.7709L18.8959 9.37508L14.7917 10.2292L20.5209 17.5834L24.6042 16.7709ZM8.6667 11.4584L6.62503 11.8542C5.54468 12.0746 4.59498 12.7125 3.98247 13.6293C3.36996 14.5461 3.14417 15.6677 3.3542 16.7501L4.1667 20.8334L14.375 18.8126L8.6667 11.4584ZM49.5834 42.5001C49.7917 42.5001 49.7917 42.7084 49.5834 42.9167L47.5 46.4584C47.2917 46.6667 47.0834 46.6667 46.875 46.6667L44.375 45.8334C43.75 46.2501 43.3334 46.4584 42.7084 46.8751L42.2917 49.5834C42.2917 49.7917 42.0834 50.0001 41.875 50.0001H37.7084C37.5 50.0001 37.2917 49.7917 37.0834 49.5834L36.6667 46.8751C36.0417 46.6667 35.4167 46.2501 35 45.8334L32.5 46.8751C32.2917 46.8751 32.0834 46.8751 31.875 46.6667L29.7917 43.1251C29.5834 42.9167 29.7917 42.7084 30 42.5001L32.2917 40.8334V38.7501L30 37.0834C29.7917 36.8751 29.7917 36.6667 29.7917 36.4584L31.875 32.9167C32.0834 32.7084 32.2917 32.7084 32.5 32.7084L35 33.7501C35.625 33.3334 36.0417 33.1251 36.6667 32.7084L37.0834 30.0001C37.0834 29.7917 37.2917 29.5834 37.7084 29.5834H41.875C42.0834 29.5834 42.2917 29.7917 42.2917 30.0001L42.7084 32.7084C43.3334 32.9167 43.9584 33.3334 44.5834 33.7501L47.0834 32.7084C47.2917 32.7084 47.7084 32.7084 47.7084 32.9167L49.7917 36.4584C50 36.6667 49.7917 36.8751 49.5834 37.0834L47.2917 38.7501V40.8334L49.5834 42.5001ZM42.7084 39.5834C42.7084 37.9167 41.25 36.4584 39.5834 36.4584C37.9167 36.4584 36.4584 37.9167 36.4584 39.5834C36.4584 41.2501 37.9167 42.7084 39.5834 42.7084C41.25 42.7084 42.7084 41.2501 42.7084 39.5834Z" fill="white"/>
</svg>
