<svg width="50" height="50" viewBox="0 0 50 50" fill="none" xmlns="http://www.w3.org/2000/svg">
<path d="M39.5833 12.5001C40.1358 12.5001 40.6657 12.2806 41.0564 11.8899C41.4471 11.4992 41.6666 10.9693 41.6666 10.4167C41.6666 9.86421 41.4471 9.33431 41.0564 8.94361C40.6657 8.55291 40.1358 8.33342 39.5833 8.33342C39.0308 8.33342 38.5009 8.55291 38.1102 8.94361C37.7195 9.33431 37.5 9.86421 37.5 10.4167C37.5 10.9693 37.7195 11.4992 38.1102 11.8899C38.5009 12.2806 39.0308 12.5001 39.5833 12.5001ZM39.5833 4.16675C41.2409 4.16675 42.8306 4.82523 44.0027 5.99733C45.1748 7.16943 45.8333 8.75915 45.8333 10.4167V22.9167H37.5V14.5834H12.5V22.9167H4.16663V10.4167C4.16663 8.75915 4.82511 7.16943 5.99721 5.99733C7.16931 4.82523 8.75902 4.16675 10.4166 4.16675H39.5833ZM37.5 38.0209C37.5 38.8126 37.0625 39.5001 36.3958 39.8542L26.1875 45.4584C25.8333 45.7084 25.4375 45.8334 25 45.8334C24.5625 45.8334 24.1458 45.7084 23.8125 45.4584L13.6041 39.8542C13.2701 39.6787 12.9906 39.415 12.7959 39.0918C12.6013 38.7686 12.4989 38.3982 12.5 38.0209V27.0834C12.5 26.2917 12.9375 25.6042 13.6041 25.2501L23.8125 20.1667C24.1458 19.9167 24.5625 19.7917 25 19.7917C25.4375 19.7917 25.8333 19.9167 26.1875 20.1667L36.3958 25.2501C37.0625 25.6042 37.5 26.2917 37.5 27.0834V38.0209ZM25 24.2709L18.8333 27.0834L25 30.4167L31.1666 27.0834L25 24.2709ZM16.6666 36.7918L22.9166 40.1876V34.0209L16.6666 30.6459V36.7918ZM33.3333 36.7918V30.6459L27.0833 34.0209V40.1876L33.3333 36.7918Z" fill="white"/>
</svg>
