<svg width="50" height="50" viewBox="0 0 50 50" fill="none" xmlns="http://www.w3.org/2000/svg">
<path d="M43.9414 31.9882C49.1406 24.9452 48.7773 14.953 42.5977 8.29679C36.418 1.63664 26.4805 0.527263 19.0703 5.19133" stroke="white" stroke-width="1.95312" stroke-miterlimit="10" stroke-linecap="round"/>
<path d="M40.1055 27.793C43.0977 22.9219 42.625 16.4531 38.543 12.0586C34.4609 7.66407 28.0469 6.70313 22.9688 9.32813" stroke="white" stroke-width="1.95312" stroke-miterlimit="10" stroke-linecap="round"/>
<path d="M36.1211 23.2967C36.9453 20.7772 36.418 17.8983 34.4922 15.8202C32.5625 13.742 29.7305 12.9998 27.1562 13.6366" stroke="white" stroke-width="1.95312" stroke-miterlimit="10" stroke-linecap="round"/>
<path d="M35.0161 37.7119C35.0137 37.7116 35.0113 37.7113 35.0089 37.711C34.0106 37.5819 32.6081 37.4792 30.9856 37.5845C27.7418 37.7951 23.5922 38.8394 20.0545 42.1917L20.0543 42.1919C17.1012 44.9925 15.012 47.0699 14.5058 47.5761C13.8888 48.1931 12.6901 48.4979 11.0791 48.1197C9.48597 47.7456 7.56923 46.7138 5.65426 44.7988C3.74694 42.8915 2.66101 40.8134 2.23709 39.0478C1.80374 37.243 2.08504 35.9018 2.68507 35.3032L2.68551 35.3028C2.71712 35.2712 2.8157 35.1804 2.97131 35.0372C3.76544 34.3063 6.04468 32.2086 8.48431 29.6287L8.48453 29.6285C10.1411 27.8745 10.8078 25.783 11.0906 23.8016C11.2319 22.812 11.2784 21.8426 11.3026 20.9519C11.3099 20.6841 11.3151 20.4257 11.3202 20.1764C11.3323 19.5851 11.3433 19.0453 11.3776 18.5544L11.3776 18.5543C11.495 16.8692 11.7078 15.703 11.8875 14.9662C11.9141 14.8574 11.9399 14.758 11.9646 14.6677L35.0161 37.7119Z" stroke="white"/>
<path d="M17.1562 27.3477L20.5547 25.0156L25.2813 29.7422L23.2422 33.3672C19.5625 30.4766 17.1562 27.3477 17.1562 27.3477Z" fill="white"/>
<path d="M25.2824 29.743C25.9017 29.1236 25.3452 27.563 24.0394 26.2572C22.7335 24.9514 21.1729 24.3949 20.5535 25.0143C19.9342 25.6337 20.4907 27.1943 21.7966 28.5001C23.1024 29.8059 24.6631 30.3623 25.2824 29.743Z" fill="white"/>
<path d="M9.20703 47.9492C9.19141 47.9453 9.17187 47.9453 9.14844 47.9375C9.14453 47.9375 9.14062 47.9375 9.13672 47.9336C9.13281 47.9336 9.125 47.9297 9.11719 47.9297C9.16797 47.9531 9.21875 47.9766 9.26562 48L9.22656 47.9492C9.21875 47.9531 9.21484 47.9492 9.20703 47.9492ZM20.9375 42.0703C20.7617 42.2227 20.582 42.3789 20.3984 42.5547C20.5781 42.3867 20.7578 42.2266 20.9375 42.0703Z" fill="white"/>
<path d="M7.99219 47.7422C7.96484 47.7383 7.94141 47.7344 7.92188 47.7305L7.99219 47.7422ZM8.30859 47.7969C8.19922 47.7773 8.08984 47.7617 7.99219 47.7422C8.08203 47.7578 8.1875 47.7773 8.30859 47.7969ZM7.83203 47.7148C7.78516 47.707 7.74219 47.6992 7.71094 47.6953C7.74609 47.7031 7.78516 47.707 7.83203 47.7148ZM7.92188 47.7305C7.89062 47.7266 7.85937 47.7188 7.83203 47.7148C7.85937 47.7227 7.88672 47.7266 7.92188 47.7305ZM8.82812 47.8867C8.77734 47.8789 8.73047 47.8711 8.68359 47.8633C8.73437 47.8672 8.78125 47.8789 8.82812 47.8867ZM9.05078 47.9219C8.98828 47.9102 8.91406 47.8984 8.82812 47.8828C8.89844 47.8984 8.97266 47.9102 9.05078 47.9219ZM8.5625 47.8398C8.46875 47.8242 8.38281 47.8086 8.30859 47.7969C8.39453 47.8125 8.48047 47.8242 8.5625 47.8398ZM8.68359 47.8594C8.64453 47.8516 8.60547 47.8477 8.5625 47.8398C8.60156 47.8477 8.64453 47.8555 8.68359 47.8594ZM7.65625 47.6875C7.64062 47.6836 7.63281 47.6836 7.625 47.6836C7.63281 47.6836 7.64453 47.6836 7.65625 47.6875ZM21.4492 41.6602C21.2812 41.7891 21.1133 41.9219 20.9414 42.0703C21.1055 41.9258 21.2773 41.7969 21.4492 41.6602ZM7.71094 47.6953C7.6875 47.6914 7.67187 47.6875 7.65625 47.6875C7.67187 47.6914 7.69141 47.6914 7.71094 47.6953ZM7.62891 47.6836C7.62109 47.6797 7.62109 47.6797 7.62891 47.6836V47.6836ZM9.20703 47.9492C9.21484 47.9492 9.21875 47.9531 9.22656 47.9531C9.22656 47.9531 9.21875 47.9492 9.20703 47.9492ZM9.11719 47.9336C9.125 47.9336 9.12891 47.9375 9.13672 47.9375C9.12891 47.9375 9.12109 47.9336 9.11719 47.9336ZM9.14453 47.9375C9.17187 47.9414 9.19141 47.9453 9.20312 47.9492C9.18359 47.9453 9.16797 47.9414 9.14453 47.9375Z" fill="white"/>
<path d="M16.7148 46.1016C16.3555 46.4492 16.043 46.7578 15.7773 47.0234C16.043 46.7617 16.3555 46.4531 16.7148 46.1016ZM14.1133 48.4414C14.0156 48.4883 13.9102 48.5273 13.8047 48.5664C13.9141 48.5273 14.0156 48.4883 14.1133 48.4414ZM14.4961 48.2266C14.3945 48.2969 14.2852 48.3594 14.1719 48.418C14.2852 48.3594 14.3945 48.293 14.4961 48.2266ZM11.8945 48.75C11.8672 48.7461 11.8398 48.7461 11.8086 48.7422C11.8359 48.7461 11.8672 48.75 11.8945 48.75ZM12.6172 48.7734H12.4766C12.5234 48.7773 12.5703 48.7773 12.6172 48.7734ZM13.6602 48.6133C13.5625 48.6406 13.4609 48.668 13.3555 48.6875C13.4609 48.6641 13.5625 48.6406 13.6602 48.6133Z" fill="white"/>
<path d="M13.9727 47.1992C13.9727 47.1992 12.8438 48.5625 9.23047 47.9492L9.26953 48C10.1758 48.418 11.0352 48.6562 11.8125 48.7422C11.8398 48.7461 11.8672 48.7461 11.8984 48.75C12.0977 48.7695 12.293 48.7773 12.4805 48.7734H12.6211C12.7109 48.7695 12.7969 48.7617 12.8789 48.7578C12.9531 48.75 13.0273 48.7422 13.1016 48.7305C13.1875 48.7187 13.2734 48.7031 13.3594 48.6875C13.4648 48.6641 13.5664 48.6406 13.6641 48.6133C13.7148 48.5977 13.7617 48.582 13.8086 48.5664C13.9141 48.5312 14.0195 48.4883 14.1172 48.4414C14.1367 48.4336 14.1562 48.4258 14.1719 48.418C14.2891 48.3594 14.3945 48.2969 14.4961 48.2266L14.5781 48.168C14.6797 48.0937 14.7773 48.0156 14.8633 47.9297C15.0195 47.7734 15.332 47.4609 15.7773 47.0234C16.043 46.7617 16.3594 46.4531 16.7148 46.1016C16.832 45.9844 16.957 45.8633 17.0859 45.7383C17.9844 44.8633 19.1094 43.7773 20.4023 42.5547C20.4219 42.5391 20.4375 42.5234 20.4531 42.5078C19.9531 42.3672 19.4648 42.1992 18.9805 42.0234C17.875 43.1172 15.2813 45.7109 13.9727 47.1992Z" fill="white"/>
<path d="M18.8184 31.4161L18.8183 31.416C15.121 27.7187 12.5041 23.8944 11.2089 20.6245C9.89702 17.3124 10.0055 14.764 11.3925 13.377C12.7604 12.0091 15.1108 12.0447 18.2544 13.5357C21.355 15.0064 25.0106 17.8037 28.7206 21.5137C32.4286 25.2237 35.226 28.8793 36.6971 31.9799C38.1886 35.1237 38.2251 37.4739 36.8573 38.8418C35.4703 40.2287 32.9209 40.3372 29.6083 39.0254C26.3379 37.7302 22.5136 35.1132 18.8184 31.4161ZM12.1073 14.0957C11.461 14.7419 11.2406 15.7294 11.3099 16.8435C11.3798 17.9684 11.7478 19.3078 12.3857 20.7728C13.6632 23.7067 16.0609 27.231 19.5332 30.7013C23.0053 34.1715 26.5295 36.5691 29.4628 37.8471C30.9275 38.4852 32.2665 38.8536 33.3911 38.9238C34.505 38.9934 35.4923 38.7733 36.1386 38.127C36.7849 37.4807 37.0053 36.4933 36.936 35.3791C36.8661 34.2542 36.4981 32.9148 35.8602 31.4498C34.5827 28.5159 32.185 24.9917 28.7127 21.5213C25.2405 18.0511 21.7164 15.6535 18.7831 14.3756C17.3184 13.7375 15.9793 13.3691 14.8547 13.2988C13.7408 13.2292 12.7536 13.4493 12.1073 14.0957Z" stroke="white"/>
<path d="M12.504 20.9531C12.8672 21.7461 13.3829 23.8008 17.254 28.3867C17.3868 28.543 17.9336 29.25 17.586 29.5977C17.3555 29.8281 16.9336 29.5469 16.4493 29.0625C14.5586 27.1719 12.7891 24.7774 11.461 21.9922C10.711 20.418 12.0001 19.8594 12.504 20.9531Z" fill="white"/>
</svg>
