<svg width="80" height="81" viewBox="0 0 80 81" fill="none" xmlns="http://www.w3.org/2000/svg">
<path d="M50.1285 68.9212H32.5646M50.1285 68.9212C50.1285 66.3879 50.1285 65.1195 50.262 64.2775C50.694 61.5665 50.7678 61.3924 52.4785 59.2606C53.0089 58.5998 54.9761 56.8162 58.9139 53.2489C61.6789 50.7523 63.8905 47.6923 65.4035 44.2699C66.9164 40.8475 67.6964 37.1401 67.6924 33.3912C67.6966 30.3656 67.1893 27.3614 66.1924 24.5087M50.1285 68.9212C50.1285 72.2433 50.1285 73.9025 49.4224 75.139C48.96 75.9491 48.2948 76.6218 47.4939 77.0896C46.2714 77.8037 44.631 77.8037 41.3465 77.8037C38.0621 77.8037 36.4216 77.8037 35.1992 77.0896C34.3982 76.6218 33.7331 75.9491 33.2707 75.139C32.5646 73.9025 32.5646 72.2433 32.5646 68.9212M32.5646 68.9212C32.5646 66.3879 32.5646 65.1195 32.4311 64.2775C31.999 61.5665 31.9253 61.3924 30.2145 59.2606C29.6841 58.5998 27.7134 56.8162 23.7791 53.2489C18.919 48.8559 15.8414 42.7965 15.1413 36.2418C14.4411 29.6872 16.1681 23.1028 19.9884 17.7611C23.8088 12.4195 29.4512 8.69986 35.8252 7.32118C42.1992 5.94249 48.8522 7.00264 54.4984 10.2967" stroke="white" stroke-width="3" stroke-linecap="round"/>
<path d="M44.1075 29.8376L36.5796 40.4966H47.1179L39.59 51.1556" stroke="white" stroke-width="3" stroke-linecap="round" stroke-linejoin="round"/>
</svg>
