<svg width="50" height="50" viewBox="0 0 50 50" fill="none" xmlns="http://www.w3.org/2000/svg">
<path d="M27.0834 32.2915V18.7498C27.0834 18.1973 27.3029 17.6674 27.6936 17.2767C28.0843 16.886 28.6142 16.6665 29.1667 16.6665H41.6667C42.2192 16.6665 42.7491 16.886 43.1398 17.2767C43.5305 17.6674 43.75 18.1973 43.75 18.7498V27.0832M43.75 39.5832C43.75 40.1357 43.5305 40.6656 43.1398 41.0563C42.7491 41.447 42.2192 41.6665 41.6667 41.6665" stroke="white" stroke-width="4.16667" stroke-linecap="round" stroke-linejoin="round"/>
<path d="M37.5 16.6666V10.4166C37.5 9.86405 37.2805 9.33415 36.8898 8.94345C36.4991 8.55275 35.9692 8.33325 35.4167 8.33325H8.33333C7.7808 8.33325 7.25089 8.55275 6.86019 8.94345C6.46949 9.33415 6.25 9.86405 6.25 10.4166V35.4166C6.25 35.9691 6.46949 36.499 6.86019 36.8897C7.25089 37.2804 7.7808 37.4999 8.33333 37.4999H22.9167M41.6667 43.7499L45.8333 39.5833L41.6667 35.4166M35.4167 35.4166L31.25 39.5833L35.4167 43.7499M33.3333 18.7499H37.5" stroke="white" stroke-width="4.16667" stroke-linecap="round" stroke-linejoin="round"/>
</svg>
