<svg width="30" height="30" viewBox="0 0 30 30" fill="none" xmlns="http://www.w3.org/2000/svg">
<path d="M25 2C25.7956 2 26.5587 2.31607 27.1213 2.87868C27.6839 3.44129 28 4.20435 28 5V20C28 22.1217 27.1571 24.1566 25.6569 25.6569C24.1566 27.1571 22.1217 28 20 28V26C21.5913 26 23.1174 25.3679 24.2426 24.2426C25.3679 23.1174 26 21.5913 26 20V14H19C18.2043 14 17.4413 13.6839 16.8787 13.1213C16.3161 12.5587 16 11.7957 16 11V5C16 4.20435 16.3161 3.44129 16.8787 2.87868C17.4413 2.31607 18.2043 2 19 2H25ZM11 2C11.7956 2 12.5587 2.31607 13.1213 2.87868C13.6839 3.44129 14 4.20435 14 5V20C14 22.1217 13.1571 24.1566 11.6569 25.6569C10.1566 27.1571 8.12173 28 6 28V26C7.5913 26 9.11742 25.3679 10.2426 24.2426C11.3679 23.1174 12 21.5913 12 20V14H5C4.20435 14 3.44129 13.6839 2.87868 13.1213C2.31607 12.5587 2 11.7957 2 11V5C2 4.20435 2.31607 3.44129 2.87868 2.87868C3.44129 2.31607 4.20435 2 5 2H11Z" fill="#333333"/>
</svg>
