<svg width="30" height="30" viewBox="0 0 30 30" fill="none" xmlns="http://www.w3.org/2000/svg">
<path d="M5 28C4.20435 28 3.44129 27.6839 2.87868 27.1213C2.31607 26.5587 2 25.7956 2 25V10C2 7.87827 2.84285 5.84344 4.34315 4.34315C5.84344 2.84285 7.87827 2 10 2V4C8.4087 4 6.88258 4.63214 5.75736 5.75736C4.63214 6.88258 4 8.4087 4 10V16H11C11.7956 16 12.5587 16.3161 13.1213 16.8787C13.6839 17.4413 14 18.2044 14 19V25C14 25.7956 13.6839 26.5587 13.1213 27.1213C12.5587 27.6839 11.7956 28 11 28H5ZM19 28C18.2044 28 17.4413 27.6839 16.8787 27.1213C16.3161 26.5587 16 25.7956 16 25V10C16 7.87827 16.8429 5.84344 18.3431 4.34315C19.8434 2.84285 21.8783 2 24 2V4C22.4087 4 20.8826 4.63214 19.7574 5.75736C18.6321 6.88258 18 8.4087 18 10V16H25C25.7956 16 26.5587 16.3161 27.1213 16.8787C27.6839 17.4413 28 18.2044 28 19V25C28 25.7956 27.6839 26.5587 27.1213 27.1213C26.5587 27.6839 25.7956 28 25 28H19Z" fill="#333333"/>
</svg>
