<svg width="50" height="50" viewBox="0 0 50 50" fill="none" xmlns="http://www.w3.org/2000/svg">
<mask id="path-1-inside-1_104_305" fill="white">
<path d="M5.21873 0.000567997C5.0227 -0.00358733 4.82691 0.0150727 4.63685 0.0560268C2.06507 0.61615 0.474429 2.25202 0.103786 4.17009C-0.266732 6.08815 0.3759 8.2519 1.6948 10.3645C4.29232 14.5251 9.63507 18.5695 16.4869 19.503C15.7828 18.7877 15.1 17.9866 14.4443 17.1213C9.54822 15.7832 5.65565 12.6139 3.69148 9.46784C2.536 7.61705 2.07913 5.79638 2.33342 4.48006C2.58783 3.16374 3.34657 2.31515 5.19865 1.91171C5.20681 1.9099 5.20719 1.90809 5.2102 1.90607C5.20204 1.89085 5.22338 1.89756 5.2102 1.90607C5.2156 1.91499 5.22312 1.92285 5.23229 1.92917C5.29844 1.98165 5.44428 2.16761 5.5093 2.47631C5.63933 3.09412 5.45746 4.13613 4.48824 5.20986L6.28222 6.3746C7.58982 4.92586 7.99548 3.38494 7.73316 2.13962C7.60212 1.5169 7.30691 0.951138 6.77574 0.529715C6.37736 0.213674 5.80338 0.0116385 5.21873 0.000567997ZM44.7813 0.000567997C44.1966 0.0116385 43.6228 0.213781 43.2243 0.529821C42.6931 0.951351 42.3979 1.51701 42.2667 2.13972C42.0045 3.38504 42.4102 4.92586 43.7177 6.37471L45.5118 5.20997C44.5425 4.13624 44.3607 3.09423 44.4907 2.47641C44.5557 2.16772 44.7016 1.98176 44.7677 1.92928C44.7768 1.92292 44.7844 1.91507 44.7898 1.90618C44.7766 1.89766 44.798 1.89096 44.7898 1.90618C44.7928 1.9082 44.7932 1.91001 44.8013 1.91182C46.6534 2.31525 47.4122 3.16363 47.6666 4.48006C47.9209 5.79638 47.464 7.61705 46.3085 9.46784C44.3444 12.6139 40.4518 15.7833 35.5557 17.1213C34.9002 17.9866 34.2171 18.7877 33.5131 19.503C40.3649 18.5695 45.7077 14.5251 48.3052 10.3645C49.6241 8.2519 50.2667 6.08815 49.8962 4.17009C49.5256 2.25192 47.9349 0.61615 45.3632 0.0560268C45.1731 0.0150727 44.9773 -0.00358733 44.7813 0.000567997ZM10.1186 0.821592C10.3879 4.71041 12.2222 9.66412 14.7045 13.6829C16.0483 15.8589 17.5757 17.7634 19.0675 19.0782C20.5593 20.393 21.9877 21.0464 22.9918 21.0464H27.0082C28.0123 21.0464 29.4407 20.393 30.9325 19.0782C32.4243 17.7634 33.9517 15.8589 35.2955 13.6829C37.7778 9.66402 39.612 4.71052 39.8814 0.821592H10.1186ZM22.1132 22.9625V24.6657H27.8868V22.9625H22.1132ZM22.9221 26.5817C22.6136 29.3458 21.316 32.7421 19.8549 34.6717H30.1451C28.6841 32.7421 27.3864 29.3458 27.0779 26.5817H22.9221ZM18.0967 36.5877V38.078H31.9033V36.5877H18.0967ZM14.0803 39.994V50H35.9197V39.994H14.0803ZM16.9671 42.4423H33.0329V47.5517H16.9671V42.4423Z"/>
</mask>
<path d="M5.21873 0.000567997L5.09158 5.99924L5.10514 5.99949L5.21873 0.000567997ZM4.63685 0.0560268L3.37298 -5.80936L3.36001 -5.80654L4.63685 0.0560268ZM0.103786 4.17009L-5.78723 3.03172L-5.78731 3.03209L0.103786 4.17009ZM1.6948 10.3645L-3.39482 13.5419L-3.39475 13.542L1.6948 10.3645ZM16.4869 19.503L15.6769 25.4481L33.0941 27.8211L20.7628 15.2939L16.4869 19.503ZM14.4443 17.1213L19.2264 13.4976L17.9942 11.8714L16.026 11.3335L14.4443 17.1213ZM3.69148 9.46784L-1.39807 12.6453L-1.39804 12.6454L3.69148 9.46784ZM2.33342 4.48006L-3.55756 3.34146L-3.55766 3.342L2.33342 4.48006ZM5.19865 1.91171L6.47567 7.77424L6.4868 7.77182L6.49792 7.76935L5.19865 1.91171ZM5.23229 1.92917L8.96143 -2.7712L8.80339 -2.89659L8.63728 -3.01108L5.23229 1.92917ZM5.5093 2.47631L11.3807 1.24056L11.3805 1.23974L5.5093 2.47631ZM4.48824 5.20986L0.03439 1.18951L-4.67931 6.41148L1.22096 10.2422L4.48824 5.20986ZM6.28222 6.3746L3.01493 11.407L7.30729 14.1938L10.7363 10.3947L6.28222 6.3746ZM7.73316 2.13962L1.86174 3.37513L1.862 3.37636L7.73316 2.13962ZM6.77574 0.529715L10.5049 -4.17064L10.5047 -4.1708L6.77574 0.529715ZM44.7813 0.000567997L44.8949 5.99951L44.9084 5.99922L44.7813 0.000567997ZM43.2243 0.529821L39.496 -4.17126L39.4945 -4.17008L43.2243 0.529821ZM42.2667 2.13972L36.3955 0.903076L36.3954 0.903542L42.2667 2.13972ZM43.7177 6.37471L39.2633 10.3945L42.6921 14.194L46.9848 11.4072L43.7177 6.37471ZM45.5118 5.20997L48.7789 10.2425L54.6795 6.41175L49.9656 1.18962L45.5118 5.20997ZM44.4907 2.47641L38.6195 1.23985L38.6193 1.24066L44.4907 2.47641ZM44.7677 1.92928L41.3414 -2.9962L41.1864 -2.88841L41.0386 -2.7711L44.7677 1.92928ZM44.8013 1.91182L43.5021 7.76946L43.5132 7.77192L43.5243 7.77435L44.8013 1.91182ZM47.6666 4.48006L53.5577 3.342L53.5576 3.34155L47.6666 4.48006ZM46.3085 9.46784L51.398 12.6454L51.3981 12.6453L46.3085 9.46784ZM35.5557 17.1213L33.9741 11.3335L32.0056 11.8714L30.7732 13.498L35.5557 17.1213ZM33.5131 19.503L29.2368 15.2943L16.9085 27.8208L34.3231 25.4481L33.5131 19.503ZM48.3052 10.3645L53.3948 13.542L53.3948 13.5419L48.3052 10.3645ZM49.8962 4.17009L55.7873 3.03209L55.7872 3.03178L49.8962 4.17009ZM45.3632 0.0560268L46.64 -5.80655L46.627 -5.80935L45.3632 0.0560268ZM10.1186 0.821592V-5.17841H3.6886L4.13289 1.23618L10.1186 0.821592ZM14.7045 13.6829L19.8094 10.5301L19.8092 10.5299L14.7045 13.6829ZM19.0675 19.0782L15.1003 23.5795L15.1003 23.5795L19.0675 19.0782ZM30.9325 19.0782L34.8997 23.5795L34.8997 23.5795L30.9325 19.0782ZM35.2955 13.6829L30.1908 10.5299L30.1906 10.5301L35.2955 13.6829ZM39.8814 0.821592L45.8671 1.23636L46.3116 -5.17841H39.8814V0.821592ZM22.1132 22.9625V16.9625H16.1132V22.9625H22.1132ZM22.1132 24.6657H16.1132V30.6657H22.1132V24.6657ZM27.8868 24.6657V30.6657H33.8868V24.6657H27.8868ZM27.8868 22.9625H33.8868V16.9625H27.8868V22.9625ZM22.9221 26.5817V20.5817H17.5545L16.9591 25.9162L22.9221 26.5817ZM19.8549 34.6717L15.0716 31.0496L7.7855 40.6717H19.8549V34.6717ZM30.1451 34.6717V40.6717H42.2139L34.9286 31.0498L30.1451 34.6717ZM27.0779 26.5817L33.0409 25.9162L32.4455 20.5817H27.0779V26.5817ZM18.0967 36.5877V30.5877H12.0967V36.5877H18.0967ZM18.0967 38.078H12.0967V44.078H18.0967V38.078ZM31.9033 38.078V44.078H37.9033V38.078H31.9033ZM31.9033 36.5877H37.9033V30.5877H31.9033V36.5877ZM14.0803 39.994V33.994H8.08028V39.994H14.0803ZM14.0803 50H8.08028V56H14.0803V50ZM35.9197 50V56H41.9197V50H35.9197ZM35.9197 39.994H41.9197V33.994H35.9197V39.994ZM16.9671 42.4423V36.4423H10.9671V42.4423H16.9671ZM33.0329 42.4423H39.0329V36.4423H33.0329V42.4423ZM33.0329 47.5517V53.5517H39.0329V47.5517H33.0329ZM16.9671 47.5517H10.9671V53.5517H16.9671V47.5517ZM5.34589 -5.99808C4.68659 -6.01206 4.02386 -5.9496 3.37299 -5.80935L5.90072 5.9214C5.62996 5.97974 5.35881 6.00488 5.09158 5.99922L5.34589 -5.99808ZM3.36001 -5.80654C-1.13798 -4.8269 -4.88538 -1.63536 -5.78723 3.03172L5.99481 5.30846C5.96521 5.46163 5.91179 5.60332 5.84391 5.72474C5.77621 5.84582 5.70446 5.92854 5.65194 5.97786C5.53974 6.08321 5.56654 5.9942 5.91369 5.91859L3.36001 -5.80654ZM-5.78731 3.03209C-6.55905 7.0272 -5.12909 10.7639 -3.39482 13.5419L6.78442 7.18716C6.37002 6.52337 6.15716 6.00008 6.06234 5.64527C5.96948 5.29777 6.01391 5.20957 5.99488 5.30809L-5.78731 3.03209ZM-3.39475 13.542C0.120584 19.1727 7.00909 24.2671 15.6769 25.4481L17.2969 13.5579C12.2611 12.8718 8.46405 9.87751 6.78436 7.18706L-3.39475 13.542ZM20.7628 15.2939C20.2661 14.7893 19.7505 14.1892 19.2264 13.4976L9.66212 20.7449C10.4494 21.7839 11.2994 22.786 12.2109 23.7121L20.7628 15.2939ZM16.026 11.3335C12.5584 10.3858 9.93084 8.13201 8.781 6.29029L-1.39804 12.6454C1.38046 17.0957 6.53807 21.1806 12.8625 22.909L16.026 11.3335ZM8.78103 6.29034C8.4741 5.79872 8.33417 5.42627 8.28133 5.22807C8.25607 5.13332 8.25976 5.11242 8.26309 5.16342C8.26626 5.21191 8.27206 5.37191 8.2245 5.61812L-3.55766 3.342C-4.2124 6.73118 -2.9724 10.1237 -1.39807 12.6453L8.78103 6.29034ZM8.22439 5.61866C8.1773 5.86232 7.96469 6.57633 7.28302 7.21906C6.67853 7.78901 6.19177 7.83608 6.47567 7.77424L3.92164 -3.95081C2.35345 -3.60922 0.561276 -2.93614 -0.949205 -1.51195C-2.53686 -0.0149889 -3.25605 1.78148 -3.55756 3.34146L8.22439 5.61866ZM6.49792 7.76935C6.87673 7.68533 7.59782 7.48965 8.38569 6.99737C8.74185 6.77484 8.99861 6.55879 9.01959 6.54154C9.06544 6.50383 8.83875 6.69675 8.55471 6.88746L1.86569 -3.07532C1.58014 -2.8836 1.35227 -2.68969 1.39696 -2.72644C1.41676 -2.74273 1.67235 -2.95783 2.02702 -3.17943C2.81191 -3.66985 3.52873 -3.86371 3.89939 -3.94592L6.49792 7.76935ZM10.4985 -0.928291C10.6905 -0.570064 10.972 0.0409832 11.1161 0.852727C11.258 1.65257 11.3218 2.99549 10.6401 4.44784C9.90031 6.02387 8.5589 7.11998 7.05675 7.60589C5.67869 8.05166 4.38869 7.92774 3.4131 7.62112C1.61838 7.05706 -0.744953 5.21227 -0.78493 1.97441C-0.823211 -1.126 1.32887 -2.72956 1.95388 -3.13341L8.46652 6.94556C9.09812 6.53744 11.2525 4.92986 11.2142 1.82626C11.1741 -1.41477 8.80845 -3.26188 7.01107 -3.82678C6.03414 -4.13382 4.74273 -4.25779 3.36343 -3.81161C1.86004 -3.3253 0.517559 -2.22834 -0.222838 -0.65093C-0.905181 0.802798 -0.841678 2.14762 -0.699257 2.94998C-0.554724 3.76423 -0.272162 4.3784 -0.0781258 4.74043L10.4985 -0.928291ZM0.0781822 5.01451C0.552863 5.79821 1.16806 6.41505 1.8273 6.86942L8.63728 -3.01108C9.27818 -2.56935 9.87833 -1.96824 10.3422 -1.20237L0.0781822 5.01451ZM1.50315 6.62954C1.07409 6.28914 0.788227 5.96297 0.630781 5.76847C0.447247 5.54175 0.296987 5.31803 0.173845 5.10454C-0.0743617 4.67423 -0.258001 4.20615 -0.361893 3.71287L11.3805 1.23974C11.0831 -0.172073 10.3191 -1.69404 8.96143 -2.7712L1.50315 6.62954ZM-0.362065 3.71206C-0.706802 2.07413 0.000404109 1.22716 0.03439 1.18951L8.9421 9.23021C10.9145 7.0451 11.9855 4.11412 11.3807 1.24056L-0.362065 3.71206ZM1.22096 10.2422L3.01493 11.407L9.5495 1.34222L7.75553 0.177479L1.22096 10.2422ZM10.7363 10.3947C13.0296 7.85383 14.3463 4.42547 13.6043 0.902869L1.862 3.37636C1.64462 2.3444 2.15 1.99789 1.82817 2.35447L10.7363 10.3947ZM13.6046 0.904103C13.2427 -0.815748 12.3322 -2.7209 10.5049 -4.17064L3.04658 5.23007C2.28162 4.62317 1.96158 3.84955 1.86174 3.37513L13.6046 0.904103ZM10.5047 -4.1708C8.98373 -5.3774 7.10891 -5.96472 5.33233 -5.99836L5.10514 5.99949C4.75537 5.99287 4.42707 5.93142 4.1198 5.82599C3.81965 5.72301 3.44309 5.54463 3.04677 5.23023L10.5047 -4.1708ZM44.6677 -5.99836C42.8898 -5.96469 41.0158 -5.37657 39.496 -4.17126L46.9525 5.2309C46.557 5.54457 46.1811 5.7228 45.8809 5.82584C45.5736 5.9313 45.2451 5.99286 44.8949 5.99949L44.6677 -5.99836ZM39.4945 -4.17008C37.668 -2.72062 36.7577 -0.816366 36.3955 0.903076L48.1379 3.37637C48.0381 3.85038 47.7181 4.62333 46.954 5.22972L39.4945 -4.17008ZM36.3954 0.903542C35.6538 4.42579 36.9704 7.85363 39.2633 10.3945L48.172 2.35495C47.85 1.99809 48.3552 2.3443 48.138 3.3759L36.3954 0.903542ZM46.9848 11.4072L48.7789 10.2425L42.2446 0.177481L40.4505 1.34222L46.9848 11.4072ZM49.9656 1.18962C49.9996 1.22727 50.7068 2.07423 50.3621 3.71217L38.6193 1.24066C38.0145 4.11423 39.0855 7.04521 41.0579 9.23031L49.9656 1.18962ZM50.3619 3.71298C50.258 4.20625 50.0744 4.67432 49.8262 5.10463C49.703 5.31812 49.5528 5.54184 49.3692 5.76857C49.2118 5.96307 48.9259 6.28924 48.4968 6.62965L41.0386 -2.7711C39.6809 -1.69392 38.9169 -0.17194 38.6195 1.23985L50.3619 3.71298ZM48.194 6.85475C48.8369 6.40752 49.4383 5.80425 49.9064 5.0399L39.6732 -1.22754C40.1304 -1.97412 40.7167 -2.56167 41.3414 -2.9962L48.194 6.85475ZM48.0461 -3.13331C48.6711 -2.72945 50.8232 -1.1259 50.7849 1.97452C50.745 5.21238 48.3816 7.05717 46.5869 7.62123C45.6113 7.92785 44.3213 8.05177 42.9432 7.60599C41.4411 7.12008 40.0997 6.02398 39.3599 4.44794C38.6782 2.99559 38.742 1.65268 38.8839 0.852834C39.028 0.0410895 39.3095 -0.569958 39.5015 -0.928184L50.0781 4.74054C50.2722 4.37851 50.5547 3.76434 50.6993 2.95008C50.8417 2.14772 50.9052 0.802904 50.2228 -0.650824C49.4824 -2.22824 48.14 -3.32519 46.6366 -3.81151C45.2573 -4.25768 43.9659 -4.13372 42.9889 -3.82668C41.1915 -3.26178 38.8259 -1.41467 38.7859 1.82637C38.7475 4.92997 40.9019 6.53755 41.5335 6.94566L48.0461 -3.13331ZM41.4453 6.88757C41.1604 6.69629 40.9334 6.50295 40.9786 6.54019C40.9991 6.55701 41.256 6.77343 41.6124 6.99627C42.401 7.48946 43.123 7.68537 43.5021 7.76946L46.1006 -3.94582C46.4715 -3.86354 47.1892 -3.66943 47.9749 -3.17811C48.3298 -2.9562 48.5856 -2.74073 48.6048 -2.72488C48.6489 -2.6886 48.4207 -2.88292 48.1343 -3.07521L41.4453 6.88757ZM43.5243 7.77435C43.8085 7.83625 43.3218 7.78924 42.7172 7.21927C42.0353 6.57643 41.8227 5.86223 41.7756 5.61857L53.5576 3.34155C53.2561 1.78146 52.5368 -0.0151348 50.949 -1.51213C49.4384 -2.93626 47.6463 -3.60918 46.0784 -3.95071L43.5243 7.77435ZM41.7755 5.61812C41.7279 5.37191 41.7337 5.21191 41.7369 5.16342C41.7402 5.11242 41.7439 5.13331 41.7187 5.22806C41.6658 5.42626 41.5259 5.79872 41.219 6.29034L51.3981 12.6453C52.9724 10.1237 54.2124 6.73118 53.5577 3.342L41.7755 5.61812ZM41.219 6.29029C40.0691 8.13208 37.4416 10.3859 33.9741 11.3335L37.1373 22.909C43.462 21.1807 48.6196 17.0957 51.398 12.6454L41.219 6.29029ZM30.7732 13.498C30.25 14.1887 29.7341 14.789 29.2368 15.2943L37.7894 23.7117C38.7001 22.7863 39.5504 21.7844 40.3382 20.7445L30.7732 13.498ZM34.3231 25.4481C42.9909 24.2671 49.8794 19.1727 53.3948 13.542L43.2156 7.18706C41.536 9.87751 37.7389 12.8718 32.7031 13.5579L34.3231 25.4481ZM53.3948 13.5419C55.1291 10.7639 56.5591 7.0272 55.7873 3.03209L44.0051 5.30809C43.9861 5.20957 44.0305 5.29777 43.9377 5.64527C43.8428 6.00008 43.63 6.52337 43.2156 7.18716L53.3948 13.5419ZM55.7872 3.03178C54.8854 -1.63556 51.1379 -4.82692 46.64 -5.80654L44.0863 5.91859C44.4336 5.99422 44.4603 6.08325 44.3481 5.97785C44.2956 5.92852 44.2238 5.84577 44.1561 5.72467C44.0882 5.60322 44.0348 5.46153 44.0052 5.3084L55.7872 3.03178ZM46.627 -5.80935C45.9761 -5.9496 45.3134 -6.01206 44.6541 -5.99808L44.9084 5.99922C44.6412 6.00488 44.37 5.97975 44.0993 5.9214L46.627 -5.80935ZM4.13289 1.23618C4.48783 6.36061 6.76666 12.2493 9.59973 16.836L19.8092 10.5299C17.6777 7.07897 16.288 3.06021 16.1042 0.407004L4.13289 1.23618ZM9.59956 16.8357C11.1544 19.3532 13.042 21.7654 15.1003 23.5795L23.0346 14.5769C22.1095 13.7615 20.9423 12.3646 19.8094 10.5301L9.59956 16.8357ZM15.1003 23.5795C17.0091 25.2617 19.8227 27.0464 22.9918 27.0464V15.0464C23.3777 15.0464 23.64 15.1068 23.7509 15.1372C23.8684 15.1694 23.9018 15.1915 23.8516 15.1669C23.8047 15.1439 23.7052 15.0901 23.5593 14.9902C23.4148 14.8912 23.2375 14.7557 23.0346 14.5769L15.1003 23.5795ZM22.9918 27.0464H27.0082V15.0464H22.9918V27.0464ZM27.0082 27.0464C30.1773 27.0464 32.9909 25.2617 34.8997 23.5795L26.9654 14.5769C26.7625 14.7557 26.5852 14.8912 26.4407 14.9902C26.2948 15.0901 26.1953 15.1439 26.1484 15.1669C26.0982 15.1915 26.1317 15.1694 26.2491 15.1372C26.36 15.1068 26.6223 15.0464 27.0082 15.0464V27.0464ZM34.8997 23.5795C36.958 21.7654 38.8456 19.3532 40.4004 16.8357L30.1906 10.5301C29.0577 12.3646 27.8905 13.7615 26.9654 14.5769L34.8997 23.5795ZM40.4003 16.8359C43.2334 12.2491 45.512 6.36072 45.8671 1.23636L33.8958 0.406823C33.7119 3.06031 32.3223 7.07895 30.1908 10.5299L40.4003 16.8359ZM39.8814 -5.17841H10.1186V6.82159H39.8814V-5.17841ZM16.1132 22.9625V24.6657H28.1132V22.9625H16.1132ZM22.1132 30.6657H27.8868V18.6657H22.1132V30.6657ZM33.8868 24.6657V22.9625H21.8868V24.6657H33.8868ZM27.8868 16.9625H22.1132V28.9625H27.8868V16.9625ZM16.9591 25.9162C16.7549 27.7465 15.8004 30.0871 15.0716 31.0496L24.6383 38.2937C26.8317 35.3971 28.4724 30.9451 28.8851 27.2473L16.9591 25.9162ZM19.8549 40.6717H30.1451V28.6717H19.8549V40.6717ZM34.9286 31.0498C34.1997 30.0871 33.2451 27.7464 33.0409 25.9162L21.1149 27.2473C21.5277 30.9453 23.1685 35.3971 25.3616 38.2935L34.9286 31.0498ZM27.0779 20.5817H22.9221V32.5817H27.0779V20.5817ZM12.0967 36.5877V38.078H24.0967V36.5877H12.0967ZM18.0967 44.078H31.9033V32.078H18.0967V44.078ZM37.9033 38.078V36.5877H25.9033V38.078H37.9033ZM31.9033 30.5877H18.0967V42.5877H31.9033V30.5877ZM8.08028 39.994V50H20.0803V39.994H8.08028ZM14.0803 56H35.9197V44H14.0803V56ZM41.9197 50V39.994H29.9197V50H41.9197ZM35.9197 33.994H14.0803V45.994H35.9197V33.994ZM16.9671 48.4423H33.0329V36.4423H16.9671V48.4423ZM27.0329 42.4423V47.5517H39.0329V42.4423H27.0329ZM33.0329 41.5517H16.9671V53.5517H33.0329V41.5517ZM22.9671 47.5517V42.4423H10.9671V47.5517H22.9671Z" fill="white" mask="url(#path-1-inside-1_104_305)"/>
</svg>
